<?xml version="1.0" encoding="UTF-8"?>
<svg xmlns="http://www.w3.org/2000/svg" xmlns:xlink="http://www.w3.org/1999/xlink" width="2100" height="2100" viewBox="0 0 2100 2100">
<rect x="-210" y="-210" width="2520" height="2520" fill="rgb(100%, 100%, 100%)" fill-opacity="1"/>
<path fill="none" stroke-width="70" stroke-linecap="round" stroke-linejoin="round" stroke="rgb(0%, 0%, 0%)" stroke-opacity="1" stroke-miterlimit="10" d="M 3240 21000 C 3240 21000 11275.507812 15664.6875 14130 14790 C 14130 14790 12917.382812 17464.609375 11970 21000 " transform="matrix(0.1, 0, 0, -0.1, 0, 2100)"/>
<path fill="none" stroke-width="70" stroke-linecap="round" stroke-linejoin="round" stroke="rgb(0%, 0%, 0%)" stroke-opacity="1" stroke-miterlimit="10" d="M 16330 21000 C 16330 21000 14486.601562 15654.6875 14130 14790 C 14130 14790 18363.203125 17660.3125 21000 19860 " transform="matrix(0.1, 0, 0, -0.1, 0, 2100)"/>
<path fill="none" stroke-width="70" stroke-linecap="round" stroke-linejoin="round" stroke="rgb(0%, 0%, 0%)" stroke-opacity="1" stroke-miterlimit="10" d="M 21000 16520 C 21000 16520 15508.28125 14593.710938 14130 14790 C 14130 14790 18363.203125 12634.609375 21000 12160 " transform="matrix(0.1, 0, 0, -0.1, 0, 2100)"/>
<path fill="none" stroke-width="70" stroke-linecap="round" stroke-linejoin="round" stroke="rgb(0%, 0%, 0%)" stroke-opacity="1" stroke-miterlimit="10" d="M 0 21000 C 0 21000 1869.492188 17223.710938 2830 16520 C 2830 16520 10435.898438 14467.890625 14130 14790 " transform="matrix(0.1, 0, 0, -0.1, 0, 2100)"/>
<path fill="none" stroke-width="70" stroke-linecap="round" stroke-linejoin="round" stroke="rgb(0%, 0%, 0%)" stroke-opacity="1" stroke-miterlimit="10" d="M 0 14340 C 0 14340 1875.78125 15978.789062 2830 16520 " transform="matrix(0.1, 0, 0, -0.1, 0, 2100)"/>
<path fill="none" stroke-width="70" stroke-linecap="round" stroke-linejoin="round" stroke="rgb(0%, 0%, 0%)" stroke-opacity="1" stroke-miterlimit="10" d="M 21000 7710 C 21000 7710 16548.984375 11429.414062 14130 14790 C 14130 14790 18349.882812 6290.703125 19450 4690 C 19450 4690 20569.6875 1834.726562 21000 0 " transform="matrix(0.1, 0, 0, -0.1, 0, 2100)"/>
<path fill="none" stroke-width="70" stroke-linecap="round" stroke-linejoin="round" stroke="rgb(0%, 0%, 0%)" stroke-opacity="1" stroke-miterlimit="10" d="M 19450 4690 C 19450 4690 20726.914062 4293.085938 21000 4200 " transform="matrix(0.1, 0, 0, -0.1, 0, 2100)"/>
<path fill-rule="evenodd" fill="rgb(0%, 0%, 0%)" fill-opacity="1" d="M 1404.988281 603.988281 C 1409.960938 605.691406 1415.019531 607.398438 1420.289062 606 C 1422.148438 605.5 1423.269531 603.578125 1422.769531 601.710938 C 1422.269531 599.851562 1420.351562 598.730469 1418.480469 599.230469 C 1414.601562 600.269531 1410.929688 598.621094 1407.269531 597.371094 C 1405.441406 596.738281 1403.449219 597.710938 1402.820312 599.539062 C 1402.191406 601.359375 1403.171875 603.359375 1404.988281 603.988281 "/>
<path fill-rule="evenodd" fill="rgb(0%, 0%, 0%)" fill-opacity="1" d="M 1378.609375 617.410156 C 1378.628906 617.679688 1378.5 617.941406 1378.421875 618.210938 C 1378.238281 618.789062 1378 619.351562 1377.800781 619.878906 C 1377.109375 621.691406 1378.019531 623.710938 1379.828125 624.398438 C 1381.628906 625.078125 1383.660156 624.179688 1384.339844 622.371094 C 1385.171875 620.210938 1385.988281 617.691406 1385.308594 615.308594 C 1385.28125 615.21875 1385.128906 614.898438 1384.941406 614.5 C 1386.621094 613.429688 1388.480469 612.609375 1390.171875 611.578125 C 1396.78125 607.570312 1404.648438 603.460938 1408.148438 596.160156 C 1408.980469 594.410156 1408.238281 592.320312 1406.5 591.488281 C 1404.761719 590.648438 1402.671875 591.390625 1401.828125 593.128906 C 1398.921875 599.21875 1392.039062 602.25 1386.539062 605.589844 C 1384.53125 606.820312 1382.308594 607.789062 1380.378906 609.128906 C 1379.820312 609.519531 1378.648438 610.238281 1378.101562 610.898438 C 1377.578125 611.519531 1377.289062 612.179688 1377.160156 612.800781 C 1377.089844 613.160156 1377.011719 613.789062 1377.261719 614.609375 C 1377.390625 615.058594 1378.289062 616.800781 1378.609375 617.410156 "/>
<path fill-rule="evenodd" fill="rgb(0%, 0%, 0%)" fill-opacity="1" d="M 1420.988281 604.601562 C 1425.089844 607.769531 1430.460938 609.160156 1435.578125 608.691406 C 1437.5 608.519531 1438.921875 606.808594 1438.738281 604.890625 C 1438.570312 602.960938 1436.871094 601.550781 1434.941406 601.71875 C 1431.550781 602.03125 1427.980469 601.160156 1425.269531 599.058594 C 1423.738281 597.878906 1421.539062 598.160156 1420.359375 599.691406 C 1419.179688 601.210938 1419.460938 603.410156 1420.988281 604.601562 "/>
<path fill-rule="evenodd" fill="rgb(0%, 0%, 0%)" fill-opacity="1" d="M 1437.839844 619.480469 C 1437.738281 620 1437.558594 620.550781 1437.429688 621.089844 C 1437.171875 622.121094 1436.941406 623.148438 1436.878906 624.121094 C 1436.699219 626.941406 1437.449219 629.121094 1438.75 631.078125 C 1438.410156 631.269531 1438.078125 631.480469 1437.75 631.691406 C 1433.828125 634.199219 1430.679688 636.78125 1429.71875 641.640625 C 1429.351562 643.539062 1430.578125 645.378906 1432.480469 645.75 C 1434.371094 646.128906 1436.210938 644.890625 1436.589844 643 C 1437.140625 640.210938 1439.28125 639.019531 1441.519531 637.589844 C 1442.410156 637.019531 1443.308594 636.519531 1444.230469 636.011719 C 1444.519531 635.910156 1445.550781 635.539062 1445.878906 635.328125 C 1446.5 634.949219 1446.910156 634.488281 1447.171875 634.070312 C 1447.578125 633.410156 1447.75 632.710938 1447.71875 631.988281 C 1447.691406 631.238281 1447.460938 630.359375 1446.601562 629.511719 C 1445.121094 628.050781 1443.730469 626.808594 1443.871094 624.550781 C 1443.929688 623.589844 1444.300781 622.539062 1444.53125 621.519531 C 1444.800781 620.359375 1444.960938 619.210938 1444.890625 618.148438 C 1444.871094 617.808594 1444.78125 617.121094 1444.25 616.300781 C 1443.859375 615.691406 1441.789062 613.320312 1441.378906 612.859375 C 1440.199219 610.589844 1440.398438 607.898438 1440.710938 605.441406 C 1440.960938 603.519531 1439.601562 601.769531 1437.679688 601.519531 C 1435.769531 601.28125 1434.011719 602.640625 1433.769531 604.558594 C 1433.261719 608.53125 1433.339844 612.839844 1435.378906 616.46875 C 1435.539062 616.761719 1437.019531 618.511719 1437.839844 619.480469 "/>
<path fill-rule="evenodd" fill="rgb(0%, 0%, 0%)" fill-opacity="1" d="M 1403.871094 586.230469 C 1403.578125 586.101562 1401.628906 585.238281 1400.808594 585 C 1399.921875 584.738281 1399.160156 584.738281 1398.640625 584.820312 C 1397.691406 584.980469 1396.578125 585.488281 1395.488281 586.320312 C 1394.058594 587.398438 1392.539062 589.128906 1391.671875 589.949219 C 1388.050781 593.308594 1384.328125 597.269531 1379.890625 599.558594 C 1378.039062 600.511719 1375.929688 601.160156 1373.871094 601.488281 C 1373.589844 601.488281 1371.378906 601.511719 1370.558594 601.628906 C 1369.28125 601.820312 1368.488281 602.410156 1368.121094 602.78125 C 1367.5 603.410156 1366.988281 604.289062 1366.671875 605.320312 C 1366.261719 606.628906 1366.148438 608.300781 1366.050781 609.308594 C 1365.910156 610.78125 1365.921875 612.191406 1365.851562 613.550781 C 1365.78125 614.898438 1365.671875 616.199219 1364.820312 617.46875 C 1363.738281 619.078125 1364.179688 621.25 1365.78125 622.328125 C 1367.390625 623.398438 1369.558594 622.96875 1370.640625 621.359375 C 1373.050781 617.75 1372.609375 614.140625 1373.019531 609.988281 C 1373.050781 609.671875 1373.128906 609.058594 1373.210938 608.511719 C 1373.910156 608.488281 1374.628906 608.460938 1374.859375 608.421875 C 1377.671875 607.980469 1380.570312 607.089844 1383.109375 605.78125 C 1388.089844 603.199219 1392.359375 598.859375 1396.429688 595.078125 C 1396.96875 594.570312 1397.761719 593.699219 1398.621094 592.859375 C 1398.878906 592.609375 1399.28125 592.28125 1399.589844 592.03125 C 1400.519531 592.421875 1402.058594 593.03125 1402.621094 593.121094 C 1406.148438 593.691406 1409.621094 592.859375 1412.851562 591.449219 C 1416.828125 589.699219 1420.039062 586.839844 1423.738281 584.621094 C 1424.058594 584.429688 1424.679688 584.089844 1425.28125 583.769531 C 1425.390625 583.960938 1425.46875 584.109375 1425.488281 584.140625 C 1426.960938 586.300781 1429.230469 587.800781 1431.488281 588.988281 C 1434.039062 590.328125 1436.878906 591.25 1439.648438 592.269531 C 1441.410156 592.910156 1443.148438 593.589844 1444.691406 594.558594 C 1444.570312 595.160156 1444.441406 595.839844 1444.429688 596.101562 C 1444.191406 599.460938 1445.410156 603.101562 1446.648438 606.171875 C 1447.890625 609.238281 1450.101562 612.058594 1452.148438 614.929688 C 1453.429688 616.71875 1454.671875 618.519531 1455.210938 620.539062 C 1454.949219 620.808594 1454.691406 621.078125 1454.601562 621.199219 C 1453.140625 623.03125 1452.261719 625.148438 1451.761719 627.421875 C 1451.101562 630.441406 1451.210938 633.628906 1451 636.710938 L 1450.941406 637.691406 C 1450.421875 637.859375 1449.871094 638.058594 1449.628906 638.179688 C 1447.21875 639.390625 1444.941406 641.160156 1443.25 643.269531 C 1440.820312 646.289062 1439.980469 649.660156 1439.558594 653.171875 C 1439.25 655.820312 1439.230469 658.558594 1438.390625 661.191406 C 1438.308594 661.460938 1438.058594 661.601562 1437.859375 661.78125 C 1437.398438 662.199219 1436.921875 662.601562 1436.480469 663.03125 C 1435.230469 664.25 1434.289062 665.679688 1434.050781 667.671875 C 1433.828125 669.589844 1435.199219 671.328125 1437.121094 671.558594 C 1439.039062 671.78125 1440.78125 670.398438 1441.011719 668.480469 C 1441.039062 668.230469 1441.28125 668.121094 1441.441406 667.96875 C 1441.730469 667.691406 1442.039062 667.429688 1442.339844 667.160156 C 1443.539062 666.101562 1444.558594 664.898438 1445.070312 663.300781 C 1446.03125 660.25 1446.148438 657.078125 1446.519531 653.988281 C 1446.78125 651.761719 1447.160156 649.570312 1448.710938 647.648438 C 1449.769531 646.328125 1451.199219 645.238281 1452.710938 644.46875 C 1452.890625 644.410156 1454.03125 644.078125 1454.578125 643.859375 C 1455.46875 643.511719 1456.148438 643.03125 1456.550781 642.601562 C 1456.949219 642.179688 1457.339844 641.550781 1457.578125 640.738281 C 1457.890625 639.699219 1457.929688 637.898438 1457.980469 637.191406 C 1458.171875 634.449219 1458.011719 631.609375 1458.601562 628.921875 C 1458.859375 627.730469 1459.269531 626.601562 1460.019531 625.628906 C 1460.261719 625.378906 1461.5 624.140625 1461.859375 623.5 C 1462.378906 622.601562 1462.488281 621.71875 1462.410156 621 C 1461.988281 617.269531 1460.089844 614 1457.851562 610.859375 C 1456.128906 608.449219 1454.179688 606.140625 1453.140625 603.550781 C 1452.289062 601.441406 1451.269531 598.980469 1451.398438 596.679688 C 1451.480469 596.339844 1452.011719 593.800781 1451.878906 592.808594 C 1451.71875 591.519531 1451.121094 590.609375 1450.371094 590.011719 C 1445.929688 586.441406 1439.761719 585.429688 1434.75 582.800781 C 1433.511719 582.148438 1432.171875 581.460938 1431.351562 580.300781 C 1431.101562 579.828125 1429.96875 577.75 1429.609375 577.328125 C 1428.78125 576.359375 1427.859375 576.140625 1427.378906 576.058594 C 1426.460938 575.921875 1425.351562 576.039062 1424.210938 576.449219 C 1422.738281 576.96875 1421.109375 578.039062 1420.140625 578.621094 C 1416.699219 580.679688 1413.738281 583.410156 1410.03125 585.039062 C 1408.078125 585.898438 1406 586.539062 1403.871094 586.230469 "/>
<path fill-rule="evenodd" fill="rgb(0%, 0%, 0%)" fill-opacity="1" d="M 1349.058594 605.96875 C 1349.96875 607.511719 1350.949219 609.191406 1351.261719 610.96875 C 1352.019531 615.351562 1349.730469 619.148438 1347.539062 622.769531 C 1346.539062 624.429688 1347.078125 626.578125 1348.730469 627.578125 C 1350.378906 628.578125 1352.539062 628.050781 1353.53125 626.390625 C 1356.589844 621.339844 1359.21875 615.878906 1358.160156 609.769531 C 1357.699219 607.140625 1356.378906 604.589844 1355.039062 602.320312 C 1354.96875 602.210938 1354.730469 601.871094 1354.460938 601.488281 L 1354.601562 601.320312 C 1357.628906 597.511719 1362.488281 595.808594 1366.671875 593.609375 C 1376.640625 588.351562 1389.269531 580.519531 1392.980469 569.070312 C 1393.570312 567.230469 1392.558594 565.261719 1390.71875 564.660156 C 1388.878906 564.070312 1386.910156 565.078125 1386.308594 566.921875 C 1383.148438 576.699219 1371.929688 582.921875 1363.398438 587.421875 C 1358.390625 590.058594 1352.75 592.390625 1349.121094 596.96875 C 1348.800781 597.371094 1348.050781 598.21875 1347.601562 598.96875 C 1347.109375 599.789062 1346.871094 600.609375 1346.820312 601.230469 C 1346.789062 601.730469 1346.851562 602.601562 1347.390625 603.570312 C 1347.75 604.238281 1348.890625 605.738281 1349.058594 605.96875 "/>
<path fill-rule="evenodd" fill="rgb(0%, 0%, 0%)" fill-opacity="1" d="M 1389.320312 571.679688 C 1405.121094 577.761719 1420.390625 578.511719 1434.5 567.789062 C 1436.03125 566.621094 1436.328125 564.421875 1435.160156 562.878906 C 1433.988281 561.351562 1431.800781 561.050781 1430.261719 562.21875 C 1418.269531 571.328125 1405.261719 570.308594 1391.828125 565.148438 C 1390.03125 564.449219 1388 565.359375 1387.308594 567.160156 C 1386.621094 568.960938 1387.519531 570.988281 1389.320312 571.679688 "/>
<path fill-rule="evenodd" fill="rgb(0%, 0%, 0%)" fill-opacity="1" d="M 1432.988281 569.089844 C 1436.351562 571.878906 1439.289062 575.121094 1443.140625 577.289062 C 1450.140625 581.269531 1457.808594 583.171875 1465.78125 583.851562 C 1467.710938 584.011719 1469.398438 582.578125 1469.558594 580.648438 C 1469.730469 578.730469 1468.300781 577.03125 1466.371094 576.871094 C 1459.410156 576.28125 1452.710938 574.679688 1446.589844 571.210938 C 1443.109375 569.230469 1440.5 566.230469 1437.460938 563.699219 C 1435.96875 562.46875 1433.761719 562.679688 1432.53125 564.160156 C 1431.300781 565.648438 1431.5 567.859375 1432.988281 569.089844 "/>
<path fill-rule="evenodd" fill="rgb(0%, 0%, 0%)" fill-opacity="1" d="M 1467.609375 578.488281 C 1465.429688 582.320312 1463.75 587.128906 1463.488281 591.570312 C 1463.191406 596.71875 1464.859375 601.410156 1467.628906 605.589844 C 1471.398438 611.269531 1477.261719 615.96875 1482.320312 619.558594 C 1483.890625 620.679688 1486.078125 620.300781 1487.199219 618.730469 C 1488.320312 617.148438 1487.949219 614.96875 1486.371094 613.851562 C 1482.648438 611.210938 1478.398438 607.929688 1475.171875 604.011719 C 1472.300781 600.53125 1470.21875 596.539062 1470.480469 591.96875 C 1470.679688 588.570312 1472.019531 584.890625 1473.699219 581.960938 C 1474.648438 580.28125 1474.058594 578.140625 1472.378906 577.179688 C 1470.710938 576.230469 1468.570312 576.808594 1467.609375 578.488281 "/>
<path fill-rule="evenodd" fill="rgb(0%, 0%, 0%)" fill-opacity="1" d="M 1484.570312 615.039062 C 1470.300781 624.46875 1470.089844 643.390625 1481.460938 655.308594 C 1482.789062 656.710938 1485.011719 656.761719 1486.410156 655.429688 C 1487.800781 654.089844 1487.859375 651.878906 1486.519531 650.480469 C 1478.179688 641.730469 1477.949219 627.808594 1488.429688 620.878906 C 1490.039062 619.808594 1490.480469 617.640625 1489.421875 616.03125 C 1488.351562 614.421875 1486.179688 613.96875 1484.570312 615.039062 "/>
<path fill-rule="evenodd" fill="rgb(0%, 0%, 0%)" fill-opacity="1" d="M 1484.769531 651.039062 C 1478.101562 651.039062 1471.609375 651.46875 1465.691406 654.988281 C 1457.421875 659.929688 1454.480469 671.808594 1456.429688 680.570312 C 1456.851562 682.449219 1458.71875 683.640625 1460.609375 683.21875 C 1462.488281 682.800781 1463.679688 680.929688 1463.261719 679.050781 C 1461.898438 672.921875 1463.488281 664.460938 1469.269531 661.011719 C 1474.058594 658.148438 1479.371094 658.039062 1484.769531 658.039062 C 1486.699219 658.039062 1488.269531 656.46875 1488.269531 654.539062 C 1488.269531 652.609375 1486.699219 651.039062 1484.769531 651.039062 "/>
<path fill-rule="evenodd" fill="rgb(0%, 0%, 0%)" fill-opacity="1" d="M 1460.738281 677.859375 C 1458.011719 677.5 1454.53125 677.988281 1451.871094 679.511719 C 1449.738281 680.738281 1448.101562 682.578125 1447.421875 685.03125 C 1446.898438 686.890625 1447.988281 688.820312 1449.851562 689.339844 C 1451.710938 689.859375 1453.648438 688.769531 1454.160156 686.910156 C 1454.398438 686.058594 1455.179688 685.609375 1455.980469 685.289062 C 1457.21875 684.78125 1458.660156 684.648438 1459.828125 684.800781 C 1461.75 685.050781 1463.511719 683.699219 1463.761719 681.78125 C 1464 679.859375 1462.648438 678.109375 1460.738281 677.859375 "/>
<path fill-rule="evenodd" fill="rgb(0%, 0%, 0%)" fill-opacity="1" d="M 1332.101562 597.058594 C 1333.300781 598.339844 1334.210938 599.769531 1334.839844 601.429688 C 1337.859375 609.460938 1334.378906 617.089844 1328.941406 623.101562 C 1327.640625 624.53125 1327.738281 626.738281 1329.179688 628.039062 C 1330.609375 629.339844 1332.820312 629.230469 1334.121094 627.800781 C 1341.339844 619.851562 1345.398438 609.601562 1341.390625 598.960938 C 1340.621094 596.921875 1339.570312 595.101562 1338.21875 593.441406 C 1339.628906 592.808594 1341.078125 592.289062 1342.488281 591.691406 C 1351.328125 587.960938 1359.539062 582.859375 1366 575.640625 C 1371.960938 568.96875 1376.160156 559.800781 1378.179688 551.121094 C 1378.71875 548.789062 1379.148438 546.351562 1379.308594 543.929688 C 1380.601562 544.519531 1381.839844 545.199219 1383.070312 545.890625 C 1392.128906 550.96875 1400.039062 556.761719 1410.640625 558.238281 C 1421.648438 559.769531 1433.421875 558.988281 1440.820312 550.820312 C 1441.460938 551.800781 1442.078125 552.789062 1442.730469 553.769531 C 1446.058594 558.839844 1449.558594 563.710938 1454.46875 567.410156 C 1460.21875 571.75 1468.160156 573.410156 1475.191406 574.28125 C 1477.109375 574.511719 1479 574.660156 1480.921875 574.628906 C 1480.78125 576.960938 1480.660156 579.308594 1480.640625 581.640625 C 1480.589844 587.960938 1482.609375 594.679688 1486.109375 599.949219 C 1490.230469 606.140625 1496.070312 609.761719 1502.558594 612.941406 C 1504.078125 613.691406 1505.640625 614.359375 1507.230469 614.96875 C 1505.660156 616.460938 1503.890625 617.859375 1502.839844 618.910156 C 1497.601562 624.140625 1493.03125 630.839844 1492.308594 638.421875 C 1491.71875 644.671875 1493.921875 651.421875 1496.488281 657.039062 C 1497.101562 658.359375 1497.789062 659.648438 1498.511719 660.921875 C 1497.261719 661.160156 1496.058594 661.308594 1495.378906 661.460938 C 1490.160156 662.570312 1484.738281 664.878906 1480.609375 668.320312 C 1474.101562 673.738281 1471.800781 684.269531 1471.261719 692.351562 C 1471.210938 693.230469 1471.308594 694.128906 1471.398438 695.019531 L 1469.761719 695.28125 C 1464.328125 696.078125 1459.339844 696.480469 1455.171875 700.480469 C 1453.78125 701.808594 1453.730469 704.03125 1455.070312 705.421875 C 1456.398438 706.820312 1458.621094 706.871094 1460.019531 705.53125 C 1463.050781 702.621094 1466.828125 702.789062 1470.769531 702.210938 C 1471.339844 702.128906 1475.550781 701.480469 1476.429688 701.019531 C 1477.988281 700.210938 1478.339844 698.949219 1478.429688 698.160156 C 1478.609375 696.441406 1478.128906 694.578125 1478.25 692.820312 C 1478.671875 686.460938 1479.960938 677.96875 1485.089844 673.699219 C 1488.371094 670.96875 1492.699219 669.191406 1496.839844 668.300781 C 1498.101562 668.03125 1500.96875 667.710938 1502.980469 667 C 1504.589844 666.441406 1505.789062 665.558594 1506.441406 664.660156 C 1507.269531 663.488281 1507.359375 662.308594 1506.941406 661.109375 C 1506.761719 660.609375 1505.941406 659.609375 1505.601562 659.199219 C 1504.628906 657.539062 1503.660156 655.871094 1502.859375 654.121094 C 1500.769531 649.570312 1498.800781 644.148438 1499.28125 639.078125 C 1499.851562 633.121094 1503.671875 627.980469 1507.789062 623.859375 C 1509.019531 622.628906 1511.21875 620.921875 1512.960938 619.140625 C 1514.578125 617.488281 1515.789062 615.710938 1516.238281 614.128906 C 1516.320312 613.851562 1516.921875 610.910156 1514.050781 609.871094 C 1513.878906 609.808594 1513.011719 609.558594 1512.910156 609.53125 C 1512.320312 609.359375 1511.75 609.160156 1511.171875 608.960938 C 1509.289062 608.300781 1507.429688 607.539062 1505.640625 606.660156 C 1500.28125 604.03125 1495.339844 601.191406 1491.941406 596.078125 C 1489.191406 591.941406 1487.601562 586.660156 1487.640625 581.699219 C 1487.660156 579.269531 1487.800781 576.828125 1487.949219 574.410156 C 1487.988281 573.828125 1488.199219 572.691406 1488.210938 571.789062 C 1488.21875 570.808594 1488.019531 569.96875 1487.75 569.378906 C 1487.648438 569.171875 1486.820312 567.300781 1484.398438 567.359375 C 1483.949219 567.371094 1481.75 567.578125 1481.378906 567.621094 C 1479.589844 567.691406 1477.828125 567.550781 1476.039062 567.328125 C 1470.179688 566.609375 1463.480469 565.441406 1458.691406 561.820312 C 1454.429688 558.621094 1451.46875 554.328125 1448.578125 549.929688 C 1447.488281 548.269531 1446.480469 546.609375 1445.308594 545 C 1445.011719 544.578125 1444.699219 544.171875 1444.390625 543.769531 C 1444.25 543.488281 1443.929688 542.921875 1443.78125 542.71875 C 1443.328125 542.148438 1442.820312 541.820312 1442.398438 541.621094 C 1441.578125 541.25 1440.78125 541.210938 1440 541.410156 C 1439.289062 541.601562 1438.429688 542 1437.78125 543.128906 C 1432.429688 552.558594 1421.480469 552.679688 1411.601562 551.308594 C 1401.921875 549.960938 1394.78125 544.441406 1386.5 539.789062 C 1384.140625 538.460938 1381.691406 537.191406 1379.121094 536.328125 C 1378.628906 536.160156 1376.519531 535.488281 1375.878906 535.5 C 1374.859375 535.5 1374.160156 535.878906 1373.710938 536.21875 C 1373.25 536.558594 1372.601562 537.199219 1372.339844 538.371094 C 1372.199219 539.011719 1372.378906 541.46875 1372.378906 541.910156 C 1372.378906 544.449219 1371.929688 547.070312 1371.359375 549.53125 C 1369.601562 557.109375 1365.988281 565.160156 1360.78125 570.980469 C 1355.019531 577.410156 1347.648438 581.910156 1339.769531 585.238281 C 1337.511719 586.191406 1335.199219 587.011719 1333.050781 588.199219 C 1332.71875 588.378906 1331.140625 589.261719 1330.46875 589.890625 C 1329.578125 590.730469 1329.269531 591.679688 1329.191406 592.320312 C 1329.121094 592.898438 1329.160156 593.699219 1329.648438 594.578125 C 1329.949219 595.121094 1331.679688 596.679688 1332.101562 597.058594 "/>
<path fill-rule="evenodd" fill="rgb(0%, 0%, 0%)" fill-opacity="1" d="M 1314.949219 582.628906 C 1315.601562 581.96875 1316.421875 581.351562 1317.238281 580.738281 C 1319.148438 579.339844 1321.21875 578.089844 1322.691406 577 C 1328.75 572.46875 1334.261719 567.410156 1339.519531 561.949219 C 1349.859375 551.21875 1357.359375 538.5 1363.578125 525.058594 C 1366.5 518.738281 1369.488281 512.339844 1371.25 505.578125 C 1371.738281 503.71875 1370.621094 501.800781 1368.75 501.308594 C 1366.878906 500.828125 1364.96875 501.949219 1364.480469 503.820312 C 1362.820312 510.171875 1359.96875 516.179688 1357.230469 522.109375 C 1351.328125 534.851562 1344.28125 546.929688 1334.480469 557.089844 C 1329.488281 562.269531 1324.261719 567.089844 1318.5 571.390625 C 1316.710938 572.71875 1314.058594 574.269531 1311.859375 576.050781 C 1309.980469 577.570312 1308.410156 579.269531 1307.550781 581.058594 C 1307.308594 581.570312 1306.910156 582.640625 1307.5 584.050781 C 1307.769531 584.679688 1309.46875 586.96875 1309.589844 587.148438 C 1311.480469 589.96875 1313.359375 592.828125 1314.878906 595.871094 C 1319.101562 604.28125 1318.570312 615.269531 1311.269531 621.71875 C 1309.828125 622.988281 1309.691406 625.210938 1310.96875 626.660156 C 1312.25 628.101562 1314.460938 628.238281 1315.910156 626.960938 C 1325.589844 618.410156 1326.738281 603.890625 1321.140625 592.730469 C 1319.480469 589.421875 1317.460938 586.308594 1315.398438 583.25 L 1314.949219 582.628906 "/>
<path fill-rule="evenodd" fill="rgb(0%, 0%, 0%)" fill-opacity="1" d="M 1366.488281 508.859375 C 1374.578125 513.121094 1382.628906 518.398438 1391.449219 521.078125 C 1411 527.03125 1433.320312 524.390625 1451.800781 516.210938 C 1453.558594 515.429688 1454.359375 513.359375 1453.578125 511.589844 C 1452.800781 509.828125 1450.730469 509.03125 1448.960938 509.808594 C 1431.980469 517.328125 1411.460938 519.851562 1393.488281 514.378906 C 1385.089844 511.828125 1377.460938 506.71875 1369.75 502.671875 C 1368.039062 501.769531 1365.929688 502.429688 1365.03125 504.140625 C 1364.128906 505.851562 1364.789062 507.960938 1366.488281 508.859375 "/>
<path fill-rule="evenodd" fill="rgb(0%, 0%, 0%)" fill-opacity="1" d="M 1515.929688 548.058594 C 1516.371094 555.191406 1515.558594 562.359375 1517.488281 569.421875 C 1521.75 584.921875 1533.421875 596.878906 1546.269531 605.921875 C 1547.851562 607.03125 1550.039062 606.648438 1551.148438 605.070312 C 1552.261719 603.488281 1551.878906 601.300781 1550.300781 600.191406 C 1538.75 592.078125 1528.070312 581.488281 1524.238281 567.570312 C 1522.101562 559.738281 1523.578125 551.769531 1522.570312 543.890625 C 1522.550781 543.710938 1521.960938 540.730469 1518.910156 540.828125 C 1518.480469 540.851562 1516.320312 541.019531 1516.25 541.03125 C 1514.921875 541.109375 1513.601562 541.191406 1512.269531 541.140625 C 1507.578125 540.980469 1502.839844 540.761719 1498.199219 539.949219 C 1486.511719 537.890625 1473.960938 531.089844 1465.410156 522.898438 C 1461.988281 519.621094 1458.621094 515.589844 1458.609375 510.660156 C 1458.609375 508.730469 1457.039062 507.160156 1455.109375 507.160156 C 1453.179688 507.160156 1451.609375 508.730469 1451.609375 510.660156 C 1451.621094 517.519531 1455.808594 523.390625 1460.570312 527.949219 C 1470.050781 537.050781 1484.011719 544.550781 1496.988281 546.839844 C 1501.941406 547.710938 1507.011719 547.960938 1512.03125 548.140625 C 1513.339844 548.179688 1514.628906 548.140625 1515.929688 548.058594 "/>
<path fill-rule="evenodd" fill="rgb(0%, 0%, 0%)" fill-opacity="1" d="M 1532.46875 676.359375 C 1531.808594 676.570312 1531.128906 676.738281 1530.460938 676.890625 C 1522.148438 678.699219 1514.78125 680.539062 1507.519531 685.261719 C 1498.898438 690.859375 1494.441406 698.570312 1492.839844 708.710938 C 1492.429688 711.359375 1492.171875 714.03125 1491.980469 716.710938 C 1489.128906 716.378906 1486.25 716.148438 1483.390625 716.109375 C 1474.761719 716 1469.941406 722.859375 1467.871094 730.398438 C 1467.351562 732.261719 1468.449219 734.191406 1470.308594 734.710938 C 1472.171875 735.21875 1474.101562 734.121094 1474.609375 732.261719 C 1475.859375 727.761719 1478.140625 723.039062 1483.300781 723.109375 C 1486.308594 723.148438 1489.351562 723.429688 1492.339844 723.808594 C 1492.699219 723.851562 1495.03125 724.199219 1495.539062 724.171875 C 1497.621094 724.019531 1498.351562 722.601562 1498.601562 722 C 1498.828125 721.460938 1498.988281 720.730469 1499.011719 719.898438 C 1499.03125 719.171875 1498.890625 718.269531 1498.929688 717.730469 C 1499.101562 715.070312 1499.351562 712.421875 1499.761719 709.789062 C 1501.019531 701.738281 1504.488281 695.570312 1511.339844 691.121094 C 1517.851562 686.890625 1524.5 685.359375 1531.949219 683.730469 C 1534.011719 683.28125 1536.070312 682.628906 1537.980469 681.738281 C 1538.441406 681.578125 1539.550781 681.179688 1539.949219 680.859375 C 1540.800781 680.179688 1541.308594 679.28125 1541.390625 678.101562 C 1541.441406 677.421875 1541.28125 676.378906 1540.601562 675.25 C 1539.769531 673.878906 1537.589844 671.679688 1537.089844 670.96875 C 1534.691406 667.539062 1532.738281 663.761719 1531.558594 659.71875 C 1530.421875 655.800781 1531.058594 651.328125 1531.171875 647.300781 C 1531.449219 637.359375 1531.5 626.148438 1538.058594 618.058594 C 1541.820312 613.421875 1547.289062 611.101562 1552.539062 608.589844 C 1554.289062 607.761719 1555.03125 605.660156 1554.191406 603.921875 C 1553.359375 602.179688 1551.269531 601.441406 1549.519531 602.269531 C 1543.339844 605.230469 1537.058594 608.179688 1532.621094 613.660156 C 1525.089844 622.949219 1524.5 635.691406 1524.179688 647.101562 C 1524.039062 651.839844 1523.5 657.070312 1524.839844 661.691406 C 1526.238281 666.460938 1528.519531 670.941406 1531.359375 674.988281 C 1531.519531 675.21875 1531.960938 675.761719 1532.46875 676.359375 "/>
<path fill-rule="evenodd" fill="rgb(0%, 0%, 0%)" fill-opacity="1" d="M 1484.558594 755.289062 C 1484.691406 752.828125 1485.171875 750.511719 1486.5 748.410156 C 1488.039062 745.988281 1490.789062 744.769531 1493.71875 744.089844 C 1497.191406 743.28125 1500.960938 743.28125 1504 743.570312 C 1505.929688 743.761719 1507.640625 742.351562 1507.820312 740.429688 C 1508.011719 738.511719 1506.601562 736.789062 1504.679688 736.609375 C 1500.191406 736.171875 1494.398438 736.328125 1489.519531 738.019531 C 1485.820312 739.300781 1482.628906 741.449219 1480.589844 744.660156 C 1478.609375 747.789062 1477.78125 751.21875 1477.570312 754.890625 C 1477.460938 756.820312 1478.941406 758.46875 1480.859375 758.578125 C 1482.789062 758.691406 1484.449219 757.210938 1484.558594 755.289062 "/>
<path fill-rule="evenodd" fill="rgb(0%, 0%, 0%)" fill-opacity="1" d="M 1510.488281 740.890625 C 1510.488281 736.148438 1510.769531 731.859375 1512.398438 727.339844 C 1514.738281 720.851562 1519.988281 716.21875 1525.609375 712.480469 C 1539.261719 703.390625 1554.929688 701.800781 1570.800781 700.761719 C 1572.730469 700.628906 1574.191406 698.960938 1574.070312 697.039062 C 1573.941406 695.109375 1572.269531 693.648438 1570.351562 693.769531 C 1553.238281 694.898438 1536.441406 696.871094 1521.738281 706.648438 C 1514.878906 711.21875 1508.671875 717.039062 1505.808594 724.96875 C 1503.898438 730.28125 1503.488281 735.308594 1503.488281 740.890625 C 1503.488281 742.820312 1505.050781 744.390625 1506.988281 744.390625 C 1508.921875 744.390625 1510.488281 742.820312 1510.488281 740.890625 "/>
<path fill-rule="evenodd" fill="rgb(0%, 0%, 0%)" fill-opacity="1" d="M 1573.988281 693.050781 C 1572.558594 686.289062 1570.019531 679.828125 1568.101562 673.199219 C 1565.589844 664.519531 1564.058594 653.929688 1565.800781 644.980469 C 1568.328125 631.878906 1577.558594 622.808594 1585.859375 613.070312 C 1589.03125 609.351562 1591.511719 605.199219 1594.539062 601.410156 C 1595.75 599.898438 1595.5 597.691406 1593.988281 596.488281 C 1592.488281 595.28125 1590.28125 595.519531 1589.078125 597.03125 C 1586.078125 600.769531 1583.660156 604.859375 1580.53125 608.53125 C 1571.460938 619.179688 1561.699219 629.320312 1558.921875 643.648438 C 1556.988281 653.640625 1558.578125 665.460938 1561.378906 675.140625 C 1563.25 681.609375 1565.738281 687.910156 1567.140625 694.5 C 1567.539062 696.390625 1569.398438 697.601562 1571.289062 697.199219 C 1573.179688 696.800781 1574.390625 694.941406 1573.988281 693.050781 "/>
<path fill-rule="evenodd" fill="rgb(0%, 0%, 0%)" fill-opacity="1" d="M 1590.480469 594.210938 C 1586.890625 591.679688 1583.289062 589.191406 1579.628906 586.769531 C 1576.390625 584.621094 1572.941406 582.621094 1570.699219 579.351562 C 1565.21875 571.390625 1563.828125 562.25 1562.429688 552.890625 C 1561.210938 544.710938 1560.070312 535.71875 1561.519531 527.46875 C 1562.191406 523.640625 1563.339844 519.859375 1564.480469 516.148438 C 1565.050781 514.300781 1564.011719 512.339844 1562.160156 511.769531 C 1560.320312 511.210938 1558.359375 512.238281 1557.789062 514.089844 C 1556.558594 518.078125 1555.351562 522.140625 1554.628906 526.261719 C 1553.050781 535.238281 1554.179688 545.019531 1555.511719 553.921875 C 1557.058594 564.339844 1558.839844 574.449219 1564.929688 583.320312 C 1567.691406 587.328125 1571.78125 589.960938 1575.761719 592.601562 C 1579.359375 594.988281 1582.910156 597.441406 1586.449219 599.929688 C 1588.03125 601.050781 1590.210938 600.671875 1591.320312 599.089844 C 1592.441406 597.511719 1592.058594 595.320312 1590.480469 594.210938 "/>
<path fill-rule="evenodd" fill="rgb(0%, 0%, 0%)" fill-opacity="1" d="M 1560.011719 512.71875 C 1552.71875 513.28125 1544.800781 513.910156 1537.53125 513.269531 C 1527.898438 512.429688 1518.738281 508.910156 1510.179688 504.550781 C 1503.910156 501.351562 1497.640625 497.859375 1493.019531 492.398438 C 1484.890625 482.789062 1480.691406 469.179688 1479.269531 456.730469 C 1479.050781 454.808594 1477.320312 453.429688 1475.398438 453.648438 C 1473.480469 453.871094 1472.101562 455.601562 1472.320312 457.519531 C 1473.890625 471.300781 1478.691406 486.289062 1487.679688 496.921875 C 1492.898438 503.101562 1499.898438 507.171875 1507 510.789062 C 1516.351562 515.550781 1526.398438 519.328125 1536.921875 520.25 C 1544.558594 520.921875 1552.878906 520.289062 1560.539062 519.699219 C 1562.46875 519.558594 1563.910156 517.871094 1563.761719 515.949219 C 1563.621094 514.019531 1561.929688 512.578125 1560.011719 512.71875 "/>
<path fill-rule="evenodd" fill="rgb(0%, 0%, 0%)" fill-opacity="1" d="M 1472.589844 453.679688 C 1467.398438 456.519531 1462.761719 460.378906 1457.828125 463.671875 C 1451.128906 468.160156 1443.289062 472.320312 1435.5 474.578125 C 1425.949219 477.351562 1416.21875 477.589844 1406.339844 477.679688 C 1397.488281 477.761719 1388.710938 477.75 1379.960938 476.160156 C 1368.96875 474.160156 1357.488281 469.089844 1348.589844 462.261719 C 1347.058594 461.078125 1344.859375 461.371094 1343.691406 462.910156 C 1342.511719 464.441406 1342.800781 466.640625 1344.328125 467.808594 C 1354.078125 475.289062 1366.660156 480.851562 1378.710938 483.050781 C 1387.898438 484.71875 1397.109375 484.761719 1406.410156 484.679688 C 1416.929688 484.578125 1427.269531 484.25 1437.441406 481.300781 C 1445.910156 478.851562 1454.441406 474.371094 1461.730469 469.488281 C 1466.480469 466.308594 1470.941406 462.558594 1475.949219 459.820312 C 1477.648438 458.898438 1478.269531 456.769531 1477.339844 455.070312 C 1476.421875 453.378906 1474.289062 452.761719 1472.589844 453.679688 "/>
<path fill-rule="evenodd" fill="rgb(0%, 0%, 0%)" fill-opacity="1" d="M 1341.78125 463.859375 C 1340.460938 478.941406 1337.339844 493.421875 1329.460938 506.570312 C 1324.949219 514.109375 1318.980469 519.808594 1311.808594 524.738281 C 1285.070312 543.128906 1248.941406 541.390625 1219.800781 529.5 C 1218.019531 528.769531 1215.96875 529.628906 1215.238281 531.421875 C 1214.511719 533.210938 1215.371094 535.25 1217.160156 535.980469 C 1248.398438 548.730469 1287.109375 550.21875 1315.78125 530.5 C 1323.789062 524.988281 1330.421875 518.589844 1335.46875 510.171875 C 1343.898438 496.089844 1347.339844 480.621094 1348.761719 464.460938 C 1348.921875 462.539062 1347.5 460.839844 1345.570312 460.671875 C 1343.648438 460.511719 1341.949219 461.929688 1341.78125 463.859375 "/>
<path fill-rule="evenodd" fill="rgb(0%, 0%, 0%)" fill-opacity="1" d="M 1214.359375 538.308594 C 1217.640625 539.851562 1221.078125 541.621094 1223.621094 544.269531 C 1232.691406 553.71875 1238.171875 570.089844 1233.390625 582.828125 C 1231.871094 586.890625 1228.53125 590.339844 1225.140625 592.941406 C 1222.550781 594.929688 1219.558594 596.320312 1216.71875 597.910156 C 1210.378906 601.449219 1203.738281 604.621094 1196.609375 606.210938 C 1181.980469 609.46875 1166.71875 608.53125 1151.820312 608.71875 C 1149.890625 608.738281 1148.339844 610.328125 1148.371094 612.261719 C 1148.390625 614.199219 1149.980469 615.738281 1151.910156 615.71875 C 1167.289062 615.519531 1183.03125 616.410156 1198.128906 613.039062 C 1205.921875 611.300781 1213.210938 607.890625 1220.128906 604.019531 C 1223.269531 602.261719 1226.539062 600.691406 1229.410156 598.488281 C 1233.789062 595.121094 1237.980469 590.539062 1239.941406 585.289062 C 1245.621094 570.160156 1239.441406 550.640625 1228.671875 539.421875 C 1225.539062 536.160156 1221.378906 533.871094 1217.339844 531.96875 C 1215.589844 531.148438 1213.511719 531.910156 1212.691406 533.648438 C 1211.859375 535.398438 1212.621094 537.488281 1214.359375 538.308594 "/>
<path fill-rule="evenodd" fill="rgb(0%, 0%, 0%)" fill-opacity="1" d="M 1157.789062 508.53125 L 1158.828125 508.148438 C 1162.78125 506.71875 1166.96875 506.058594 1171.109375 505.539062 C 1178.851562 504.558594 1186.679688 504.769531 1194.390625 503.558594 C 1203 502.199219 1211.398438 499.140625 1219.460938 495.910156 C 1269.210938 475.988281 1310.429688 430.109375 1316.269531 375.570312 C 1316.480469 373.648438 1315.089844 371.921875 1313.171875 371.71875 C 1311.25 371.511719 1309.519531 372.898438 1309.308594 374.820312 C 1303.738281 426.820312 1264.289062 470.421875 1216.859375 489.410156 C 1209.28125 492.449219 1201.398438 495.371094 1193.300781 496.640625 C 1185.660156 497.839844 1177.898438 497.621094 1170.230469 498.589844 C 1165.578125 499.179688 1160.878906 499.960938 1156.441406 501.570312 C 1155.800781 501.800781 1154.078125 502.289062 1152.921875 502.898438 C 1151.699219 503.539062 1150.878906 504.410156 1150.5 505.148438 C 1150.199219 505.738281 1149.859375 507.039062 1150.371094 508.738281 C 1150.960938 510.710938 1153 514.621094 1153.320312 515.460938 C 1156.351562 523.398438 1159.460938 531.371094 1161.988281 539.488281 C 1167.550781 557.289062 1168.710938 583.851562 1156.269531 599.089844 C 1151.53125 604.910156 1143.539062 608.519531 1136.71875 611.191406 C 1134.921875 611.898438 1134.03125 613.929688 1134.730469 615.730469 C 1135.441406 617.53125 1137.46875 618.410156 1139.269531 617.710938 C 1147.140625 614.628906 1156.21875 610.230469 1161.691406 603.519531 C 1175.5 586.589844 1174.839844 557.171875 1168.679688 537.410156 C 1166.101562 529.148438 1162.941406 521.039062 1159.859375 512.960938 C 1159.640625 512.398438 1158.640625 510.421875 1157.820312 508.589844 L 1157.789062 508.53125 "/>
<path fill-rule="evenodd" fill="rgb(0%, 0%, 0%)" fill-opacity="1" d="M 1312.550781 377.25 C 1324.011719 385.511719 1332.308594 395.820312 1345.320312 402.160156 C 1364.539062 411.539062 1388.199219 413.261719 1409.21875 413.898438 C 1439.550781 414.839844 1469.691406 414.570312 1497.738281 401.460938 C 1499.488281 400.640625 1500.25 398.558594 1499.429688 396.808594 C 1498.609375 395.058594 1496.53125 394.300781 1494.78125 395.121094 C 1467.738281 407.75 1438.671875 407.808594 1409.441406 406.910156 C 1389.359375 406.289062 1366.738281 404.820312 1348.390625 395.871094 C 1335.761719 389.710938 1327.769531 379.589844 1316.640625 371.570312 C 1315.070312 370.441406 1312.878906 370.800781 1311.75 372.371094 C 1310.621094 373.941406 1310.980469 376.121094 1312.550781 377.25 "/>
<path fill-rule="evenodd" fill="rgb(0%, 0%, 0%)" fill-opacity="1" d="M 1489.089844 401 C 1494.808594 423.371094 1503.03125 443.140625 1520.230469 459.359375 C 1538.03125 476.160156 1560.070312 480.148438 1583.691406 480.808594 C 1596 481.160156 1607.890625 481.269531 1619.859375 478.03125 C 1621.730469 477.519531 1622.828125 475.601562 1622.320312 473.730469 C 1621.820312 471.871094 1619.890625 470.769531 1618.03125 471.269531 C 1606.730469 474.328125 1595.5 474.140625 1583.878906 473.820312 C 1562.019531 473.199219 1541.511719 469.820312 1525.03125 454.269531 C 1508.851562 439 1501.25 420.320312 1495.871094 399.261719 C 1495.390625 397.390625 1493.480469 396.261719 1491.609375 396.738281 C 1489.738281 397.21875 1488.609375 399.128906 1489.089844 401 "/>
<path fill-rule="evenodd" fill="rgb(0%, 0%, 0%)" fill-opacity="1" d="M 1619.058594 474.820312 C 1614.761719 486.800781 1612.089844 500.070312 1613.511719 512.871094 C 1617.851562 551.820312 1657.878906 572.730469 1692.210938 579.730469 C 1694.109375 580.121094 1695.960938 578.898438 1696.339844 577 C 1696.730469 575.109375 1695.511719 573.261719 1693.609375 572.871094 C 1661.988281 566.421875 1624.460938 547.96875 1620.46875 512.089844 C 1619.160156 500.351562 1621.699219 488.179688 1625.648438 477.179688 C 1626.300781 475.371094 1625.359375 473.359375 1623.539062 472.710938 C 1621.71875 472.050781 1619.710938 473 1619.058594 474.820312 "/>
<path fill-rule="evenodd" fill="rgb(0%, 0%, 0%)" fill-opacity="1" d="M 1693.238281 575.738281 C 1669.070312 587.761719 1646.320312 616.921875 1641.179688 644.058594 C 1637.921875 661.230469 1639.96875 677.890625 1644.269531 694.648438 C 1649.421875 714.78125 1660.910156 733.480469 1679.289062 743.710938 C 1680.96875 744.648438 1683.109375 744.039062 1684.050781 742.351562 C 1684.988281 740.660156 1684.378906 738.53125 1682.691406 737.589844 C 1665.988281 728.300781 1655.730469 711.199219 1651.050781 692.921875 C 1647.011719 677.160156 1644.988281 661.511719 1648.058594 645.359375 C 1652.828125 620.199219 1673.941406 593.148438 1696.359375 582.011719 C 1698.078125 581.148438 1698.789062 579.050781 1697.929688 577.320312 C 1697.070312 575.589844 1694.96875 574.878906 1693.238281 575.738281 "/>
<path fill-rule="evenodd" fill="rgb(0%, 0%, 0%)" fill-opacity="1" d="M 1682.148438 738.75 C 1669.320312 736.351562 1656.019531 733.570312 1642.910156 735.128906 C 1612.46875 738.761719 1581.28125 759.539062 1578.070312 792.101562 C 1576.738281 805.578125 1581.300781 821.449219 1584.78125 834.410156 C 1585.28125 836.269531 1587.199219 837.378906 1589.058594 836.878906 C 1590.929688 836.378906 1592.039062 834.460938 1591.539062 832.589844 C 1588.261719 820.390625 1583.789062 805.480469 1585.039062 792.789062 C 1587.921875 763.519531 1616.378906 745.351562 1643.730469 742.089844 C 1656.148438 740.609375 1668.730469 743.359375 1680.871094 745.628906 C 1682.769531 745.980469 1684.589844 744.730469 1684.949219 742.828125 C 1685.300781 740.929688 1684.050781 739.101562 1682.148438 738.75 "/>
<path fill-rule="evenodd" fill="rgb(0%, 0%, 0%)" fill-opacity="1" d="M 1588.128906 829.679688 C 1579.921875 827.449219 1570.878906 824.769531 1562.25 825.011719 C 1546.800781 825.441406 1528.871094 835.230469 1527.390625 852.519531 C 1527.21875 854.449219 1528.648438 856.140625 1530.570312 856.308594 C 1532.5 856.480469 1534.191406 855.050781 1534.359375 853.121094 C 1535.539062 839.441406 1550.21875 832.339844 1562.441406 832 C 1570.398438 831.78125 1578.71875 834.378906 1586.289062 836.441406 C 1588.148438 836.941406 1590.078125 835.839844 1590.589844 833.980469 C 1591.089844 832.109375 1589.988281 830.191406 1588.128906 829.679688 "/>
<path fill-rule="evenodd" fill="rgb(0%, 0%, 0%)" fill-opacity="1" d="M 1498.550781 789.421875 C 1499.351562 776.359375 1505.828125 765.109375 1519.429688 762.730469 C 1521.339844 762.390625 1522.609375 760.578125 1522.28125 758.671875 C 1521.941406 756.769531 1520.128906 755.5 1518.21875 755.828125 C 1501.148438 758.828125 1492.558594 772.601562 1491.570312 788.988281 C 1491.449219 790.921875 1492.921875 792.578125 1494.851562 792.699219 C 1496.78125 792.808594 1498.441406 791.339844 1498.550781 789.421875 "/>
<path fill-rule="evenodd" fill="rgb(0%, 0%, 0%)" fill-opacity="1" d="M 1526.648438 762.078125 C 1528.351562 757.261719 1530.121094 752.449219 1532.960938 748.160156 C 1549.371094 723.339844 1581.121094 718.070312 1608.800781 716.929688 C 1610.730469 716.851562 1612.238281 715.21875 1612.160156 713.289062 C 1612.078125 711.359375 1610.449219 709.859375 1608.519531 709.941406 C 1578.691406 711.160156 1544.789062 717.570312 1527.121094 744.300781 C 1523.960938 749.070312 1521.941406 754.390625 1520.050781 759.75 C 1519.410156 761.570312 1520.359375 763.570312 1522.179688 764.210938 C 1524 764.859375 1526.011719 763.898438 1526.648438 762.078125 "/>
<path fill-rule="evenodd" fill="rgb(0%, 0%, 0%)" fill-opacity="1" d="M 1606.820312 710.921875 C 1594.660156 675.300781 1585.839844 629.300781 1614.730469 599.03125 C 1616.070312 597.640625 1616.019531 595.421875 1614.621094 594.078125 C 1613.21875 592.75 1611 592.800781 1609.671875 594.199219 C 1578.929688 626.410156 1587.25 675.28125 1600.191406 713.179688 C 1600.820312 715.011719 1602.808594 715.988281 1604.640625 715.359375 C 1606.460938 714.738281 1607.441406 712.75 1606.820312 710.921875 "/>
<path fill-rule="evenodd" fill="rgb(0%, 0%, 0%)" fill-opacity="1" d="M 1288.019531 625.269531 C 1301.558594 616.21875 1304.839844 597.179688 1300.859375 582.488281 C 1299.769531 578.488281 1298.378906 574.429688 1295.859375 571.070312 C 1294.710938 569.53125 1292.511719 569.210938 1290.960938 570.371094 C 1289.421875 571.519531 1289.101562 573.71875 1290.261719 575.269531 C 1292.238281 577.921875 1293.25 581.160156 1294.101562 584.320312 C 1297.359375 596.328125 1295.199219 612.050781 1284.128906 619.441406 C 1282.53125 620.519531 1282.089844 622.691406 1283.171875 624.300781 C 1284.238281 625.910156 1286.421875 626.339844 1288.019531 625.269531 "/>
<path fill-rule="evenodd" fill="rgb(0%, 0%, 0%)" fill-opacity="1" d="M 1248.949219 624.601562 C 1253.148438 622.878906 1257.289062 621.019531 1260.628906 617.851562 C 1276.691406 602.609375 1276.171875 577.851562 1265.058594 560.171875 C 1264.03125 558.53125 1261.871094 558.039062 1260.230469 559.058594 C 1258.601562 560.089844 1258.101562 562.25 1259.128906 563.890625 C 1268.539062 578.871094 1269.410156 599.859375 1255.808594 612.769531 C 1253.109375 615.339844 1249.699219 616.730469 1246.300781 618.121094 C 1244.511719 618.851562 1243.648438 620.890625 1244.378906 622.679688 C 1245.109375 624.46875 1247.160156 625.328125 1248.949219 624.601562 "/>
<path fill-rule="evenodd" fill="rgb(0%, 0%, 0%)" fill-opacity="1" d="M 1294.890625 574 C 1305.078125 570.730469 1313.410156 565.101562 1321.890625 558.738281 C 1327.890625 554.230469 1334.308594 549.921875 1339.269531 544.21875 C 1344.21875 538.539062 1347.789062 531.78125 1351.429688 525.238281 C 1356.640625 515.878906 1361.398438 507.359375 1364.050781 496.878906 C 1364.519531 495.011719 1363.378906 493.109375 1361.511719 492.628906 C 1359.640625 492.160156 1357.730469 493.300781 1357.261719 495.171875 C 1354.769531 505.03125 1350.21875 513.019531 1345.320312 521.828125 C 1341.910156 527.960938 1338.621094 534.308594 1333.988281 539.621094 C 1329.351562 544.949219 1323.300781 548.929688 1317.691406 553.140625 C 1309.839844 559.019531 1302.179688 564.308594 1292.75 567.328125 C 1290.910156 567.921875 1289.890625 569.898438 1290.488281 571.738281 C 1291.078125 573.578125 1293.050781 574.589844 1294.890625 574 "/>
<path fill-rule="evenodd" fill="rgb(0%, 0%, 0%)" fill-opacity="1" d="M 1195.03125 528.058594 C 1217.230469 528.730469 1237.269531 527.179688 1257.75 517.898438 C 1269.769531 512.449219 1280.890625 503.609375 1289.980469 494.171875 C 1310.769531 472.578125 1329.609375 444.03125 1330.421875 412.960938 C 1330.46875 411.03125 1328.941406 409.421875 1327.011719 409.371094 C 1325.078125 409.320312 1323.46875 410.851562 1323.421875 412.78125 C 1322.660156 442.121094 1304.558594 468.929688 1284.941406 489.308594 C 1276.449219 498.128906 1266.089844 506.429688 1254.859375 511.519531 C 1235.398438 520.351562 1216.339844 521.699219 1195.238281 521.058594 C 1193.308594 521 1191.699219 522.519531 1191.640625 524.460938 C 1191.578125 526.390625 1193.101562 528 1195.03125 528.058594 "/>
<path fill-rule="evenodd" fill="rgb(0%, 0%, 0%)" fill-opacity="1" d="M 1329.390625 418.789062 C 1343.441406 427.351562 1356.539062 436.519531 1372.359375 441.699219 C 1407.328125 453.148438 1449.128906 448.898438 1482.820312 435.269531 C 1484.609375 434.539062 1485.480469 432.5 1484.761719 430.710938 C 1484.03125 428.921875 1481.988281 428.050781 1480.199219 428.78125 C 1447.96875 441.820312 1407.988281 446 1374.539062 435.050781 C 1359.238281 430.03125 1346.621094 421.089844 1333.03125 412.808594 C 1331.378906 411.808594 1329.21875 412.328125 1328.21875 413.980469 C 1327.210938 415.628906 1327.738281 417.789062 1329.390625 418.789062 "/>
<path fill-rule="evenodd" fill="rgb(0%, 0%, 0%)" fill-opacity="1" d="M 1618.191406 591.039062 C 1597.808594 567.328125 1577.640625 539.570312 1583.339844 506.410156 C 1583.671875 504.511719 1582.390625 502.691406 1580.488281 502.371094 C 1578.578125 502.039062 1576.769531 503.320312 1576.441406 505.21875 C 1570.378906 540.53125 1591.179688 570.359375 1612.878906 595.609375 C 1614.140625 597.070312 1616.351562 597.238281 1617.820312 595.980469 C 1619.28125 594.71875 1619.449219 592.511719 1618.191406 591.039062 "/>
<path fill-rule="evenodd" fill="rgb(0%, 0%, 0%)" fill-opacity="1" d="M 1474.730469 436.46875 C 1480.351562 448.769531 1486.011719 462.359375 1496.089844 471.769531 C 1503.691406 478.871094 1513.558594 483.390625 1523.238281 486.921875 C 1545.621094 495.089844 1568.738281 495.960938 1592.21875 497.03125 C 1594.148438 497.121094 1595.789062 495.628906 1595.871094 493.699219 C 1595.960938 491.769531 1594.46875 490.128906 1592.539062 490.039062 C 1569.78125 489 1547.339844 488.261719 1525.628906 480.351562 C 1516.820312 477.128906 1507.78125 473.121094 1500.859375 466.660156 C 1491.449219 457.859375 1486.351562 445.058594 1481.101562 433.558594 C 1480.300781 431.800781 1478.21875 431.03125 1476.460938 431.828125 C 1474.710938 432.628906 1473.929688 434.710938 1474.730469 436.46875 "/>
<path fill-rule="evenodd" fill="rgb(0%, 0%, 0%)" fill-opacity="1" d="M 1096.039062 611.070312 C 1112.371094 603.628906 1121.109375 589.679688 1125.75 573.648438 C 1130.179688 558.300781 1130.808594 541.039062 1131.078125 526.269531 C 1131.308594 513.738281 1130.671875 500.890625 1127.210938 488.761719 C 1126.679688 486.898438 1124.738281 485.820312 1122.878906 486.351562 C 1121.019531 486.878906 1119.949219 488.820312 1120.480469 490.679688 C 1123.75 502.148438 1124.300781 514.289062 1124.078125 526.140625 C 1123.828125 540.351562 1123.289062 556.949219 1119.019531 571.710938 C 1114.960938 585.78125 1107.46875 598.171875 1093.140625 604.699219 C 1091.378906 605.5 1090.601562 607.578125 1091.398438 609.328125 C 1092.199219 611.089844 1094.28125 611.871094 1096.039062 611.070312 "/>
<path fill-rule="evenodd" fill="rgb(0%, 0%, 0%)" fill-opacity="1" d="M 1122.949219 487.558594 C 1130.109375 487 1137.480469 486.769531 1144.53125 485.171875 C 1169.410156 479.511719 1190.679688 465.25 1210.71875 450.050781 C 1228.410156 436.640625 1244.648438 421.53125 1255.640625 401.941406 C 1263.351562 388.210938 1267.480469 372.171875 1271.519531 357.050781 C 1277.761719 333.71875 1283.160156 310.769531 1284.5 286.558594 C 1284.601562 284.628906 1283.121094 282.980469 1281.199219 282.871094 C 1279.269531 282.769531 1277.621094 284.25 1277.511719 286.179688 C 1276.199219 309.898438 1270.871094 332.378906 1264.761719 355.238281 C 1260.871094 369.808594 1256.960938 385.28125 1249.539062 398.511719 C 1239.019531 417.25 1223.421875 431.640625 1206.488281 444.46875 C 1187.238281 459.070312 1166.871094 472.898438 1142.980469 478.339844 C 1136.25 479.871094 1129.230469 480.050781 1122.398438 480.578125 C 1120.480469 480.730469 1119.039062 482.421875 1119.191406 484.351562 C 1119.339844 486.269531 1121.03125 487.710938 1122.949219 487.558594 "/>
<path fill-rule="evenodd" fill="rgb(0%, 0%, 0%)" fill-opacity="1" d="M 1282.730469 290.46875 C 1296.121094 298.128906 1308.238281 307.160156 1322.820312 312.578125 C 1356.070312 324.941406 1396.078125 333.160156 1431.710938 328.398438 C 1469.441406 323.351562 1507.039062 306.21875 1537.671875 283.859375 C 1539.230469 282.71875 1539.570312 280.53125 1538.429688 278.96875 C 1537.289062 277.410156 1535.101562 277.058594 1533.539062 278.199219 C 1503.828125 299.890625 1467.378906 316.558594 1430.78125 321.460938 C 1396.25 326.078125 1357.488281 317.988281 1325.261719 306.011719 C 1311.039062 300.730469 1299.261719 291.859375 1286.199219 284.390625 C 1284.519531 283.441406 1282.378906 284.019531 1281.429688 285.699219 C 1280.46875 287.371094 1281.050781 289.511719 1282.730469 290.46875 "/>
<path fill-rule="evenodd" fill="rgb(0%, 0%, 0%)" fill-opacity="1" d="M 1532.039062 287.359375 C 1541.578125 307.761719 1550.128906 327.160156 1565.539062 344.089844 C 1604.589844 387.039062 1667.980469 403.101562 1723.980469 404.070312 C 1725.921875 404.101562 1727.511719 402.558594 1727.539062 400.628906 C 1727.578125 398.699219 1726.039062 397.101562 1724.109375 397.070312 C 1669.929688 396.128906 1608.5 380.929688 1570.710938 339.378906 C 1555.800781 322.988281 1547.621094 304.140625 1538.378906 284.390625 C 1537.558594 282.640625 1535.46875 281.878906 1533.71875 282.699219 C 1531.96875 283.519531 1531.21875 285.609375 1532.039062 287.359375 "/>
<path fill-rule="evenodd" fill="rgb(0%, 0%, 0%)" fill-opacity="1" d="M 1725.738281 399.800781 C 1725.738281 444.230469 1732.121094 494.761719 1763.378906 529.148438 C 1770.988281 537.511719 1779.488281 544.089844 1788.78125 550.460938 C 1790.371094 551.550781 1792.550781 551.140625 1793.640625 549.539062 C 1794.738281 547.949219 1794.328125 545.769531 1792.730469 544.679688 C 1783.890625 538.628906 1775.789062 532.398438 1768.558594 524.441406 C 1738.460938 491.339844 1732.738281 442.570312 1732.738281 399.800781 C 1732.738281 397.871094 1731.179688 396.300781 1729.238281 396.300781 C 1727.308594 396.300781 1725.738281 397.871094 1725.738281 399.800781 "/>
<path fill-rule="evenodd" fill="rgb(0%, 0%, 0%)" fill-opacity="1" d="M 1786.550781 543.539062 C 1773.648438 556.859375 1762.238281 571.46875 1754.921875 588.699219 C 1748.308594 604.261719 1746.558594 622.148438 1744.761719 638.769531 C 1740.71875 675.929688 1741.628906 714.070312 1752.441406 750.058594 C 1755.421875 759.980469 1758.429688 770.371094 1763.421875 779.5 C 1764.351562 781.199219 1766.480469 781.820312 1768.171875 780.898438 C 1769.871094 779.96875 1770.488281 777.839844 1769.570312 776.148438 C 1764.800781 767.429688 1761.988281 757.5 1759.148438 748.050781 C 1748.601562 712.949219 1747.78125 675.761719 1751.71875 639.53125 C 1753.449219 623.570312 1755.019531 606.371094 1761.359375 591.441406 C 1768.339844 575.011719 1779.28125 561.121094 1791.578125 548.410156 C 1792.929688 547.03125 1792.890625 544.808594 1791.5 543.460938 C 1790.121094 542.121094 1787.898438 542.160156 1786.550781 543.539062 "/>
<path fill-rule="evenodd" fill="rgb(0%, 0%, 0%)" fill-opacity="1" d="M 1762.160156 770.871094 C 1741.539062 773.089844 1722.441406 776.738281 1705.191406 789.171875 C 1662.429688 819.988281 1655.371094 883.359375 1665.808594 931.511719 C 1666.21875 933.398438 1668.089844 934.601562 1669.980469 934.191406 C 1671.859375 933.78125 1673.058594 931.910156 1672.648438 930.03125 C 1662.75 884.371094 1668.730469 824.078125 1709.28125 794.851562 C 1725.5 783.160156 1743.519531 779.921875 1762.910156 777.828125 C 1764.828125 777.621094 1766.230469 775.898438 1766.019531 773.980469 C 1765.808594 772.058594 1764.078125 770.660156 1762.160156 770.871094 "/>
<path fill-rule="evenodd" fill="rgb(0%, 0%, 0%)" fill-opacity="1" d="M 1665.691406 918.070312 C 1659.269531 918.238281 1652.851562 918.238281 1646.429688 918.429688 C 1632.449219 918.820312 1613.570312 923.109375 1599.960938 932.46875 C 1590.410156 939.03125 1583.429688 948.039062 1582 959.761719 C 1581.769531 961.671875 1583.128906 963.421875 1585.050781 963.660156 C 1586.96875 963.890625 1588.710938 962.519531 1588.949219 960.609375 C 1590.128906 950.949219 1596.050781 943.640625 1603.921875 938.238281 C 1616.421875 929.648438 1633.789062 925.789062 1646.628906 925.421875 C 1653.039062 925.238281 1659.460938 925.238281 1665.871094 925.070312 C 1667.800781 925.019531 1669.328125 923.410156 1669.28125 921.480469 C 1669.230469 919.550781 1667.621094 918.019531 1665.691406 918.070312 "/>
<path fill-rule="evenodd" fill="rgb(0%, 0%, 0%)" fill-opacity="1" d="M 1619.128906 1024.199219 C 1624.390625 1009.558594 1635.589844 994.148438 1649.320312 986.660156 C 1668.921875 975.96875 1696.019531 975.140625 1718.089844 976.890625 C 1720.019531 977.039062 1721.710938 975.601562 1721.859375 973.679688 C 1722.011719 971.75 1720.570312 970.058594 1718.640625 969.910156 C 1695.300781 968.058594 1666.699219 969.210938 1645.96875 980.511719 C 1630.820312 988.78125 1618.351562 1005.679688 1612.539062 1021.828125 C 1611.890625 1023.648438 1612.839844 1025.648438 1614.648438 1026.308594 C 1616.46875 1026.960938 1618.480469 1026.011719 1619.128906 1024.199219 "/>
<path fill-rule="evenodd" fill="rgb(0%, 0%, 0%)" fill-opacity="1" d="M 1724.410156 975.96875 C 1726.390625 952.679688 1731.949219 928.621094 1743.371094 908.011719 C 1766.699219 865.910156 1811.589844 834.058594 1857.339844 820.199219 C 1859.191406 819.640625 1860.238281 817.691406 1859.679688 815.839844 C 1859.121094 813.988281 1857.160156 812.941406 1855.308594 813.5 C 1807.890625 827.871094 1761.429688 860.980469 1737.25 904.621094 C 1725.359375 926.078125 1719.488281 951.121094 1717.429688 975.378906 C 1717.269531 977.300781 1718.699219 979 1720.628906 979.160156 C 1722.550781 979.320312 1724.238281 977.890625 1724.410156 975.96875 "/>
<path fill-rule="evenodd" fill="rgb(0%, 0%, 0%)" fill-opacity="1" d="M 1864.011719 812.371094 C 1853.820312 791.121094 1850.328125 768.660156 1845.578125 745.75 C 1830.019531 670.550781 1837.109375 587.371094 1882.75 523.269531 C 1883.871094 521.691406 1883.5 519.511719 1881.929688 518.378906 C 1880.351562 517.261719 1878.171875 517.628906 1877.050781 519.210938 C 1830.269531 584.890625 1822.78125 670.109375 1838.730469 747.171875 C 1843.589844 770.640625 1847.261719 793.628906 1857.699219 815.398438 C 1858.539062 817.140625 1860.628906 817.878906 1862.371094 817.039062 C 1864.109375 816.210938 1864.851562 814.109375 1864.011719 812.371094 "/>
<path fill-rule="evenodd" fill="rgb(0%, 0%, 0%)" fill-opacity="1" d="M 1880.039062 517.550781 C 1868.089844 505.019531 1854.191406 491.308594 1846.019531 475.710938 C 1831.210938 447.421875 1825.648438 417.289062 1824.769531 385.648438 C 1824.191406 365.289062 1824.730469 347.820312 1830.289062 328.371094 C 1830.820312 326.511719 1829.738281 324.570312 1827.878906 324.039062 C 1826.019531 323.511719 1824.089844 324.589844 1823.558594 326.449219 C 1817.800781 346.621094 1817.179688 364.730469 1817.769531 385.839844 C 1818.679688 418.558594 1824.5 449.710938 1839.820312 478.960938 C 1848.289062 495.121094 1862.601562 509.390625 1874.96875 522.378906 C 1876.300781 523.78125 1878.519531 523.828125 1879.921875 522.5 C 1881.320312 521.171875 1881.371094 518.949219 1880.039062 517.550781 "/>
<path fill-rule="evenodd" fill="rgb(0%, 0%, 0%)" fill-opacity="1" d="M 1824.960938 323.988281 C 1814.199219 323.988281 1802.820312 324.941406 1792.179688 322.789062 C 1777.75 319.878906 1763.449219 315.039062 1749.339844 310.921875 C 1696.671875 295.570312 1641.070312 264.03125 1615.128906 213.109375 C 1606.328125 195.808594 1603.269531 177.078125 1600.03125 158.210938 C 1598.140625 147.21875 1595.761719 136.25 1594.519531 125.160156 C 1594.300781 123.238281 1592.570312 121.859375 1590.648438 122.070312 C 1588.730469 122.289062 1587.351562 124.019531 1587.558594 125.941406 C 1588.820312 137.160156 1591.21875 148.269531 1593.128906 159.398438 C 1596.488281 178.960938 1599.761719 198.351562 1608.898438 216.28125 C 1635.691406 268.910156 1692.949219 301.769531 1747.378906 317.640625 C 1761.679688 321.808594 1776.171875 326.699219 1790.800781 329.648438 C 1801.890625 331.890625 1813.75 330.988281 1824.960938 330.988281 C 1826.890625 330.988281 1828.460938 329.421875 1828.460938 327.488281 C 1828.460938 325.558594 1826.890625 323.988281 1824.960938 323.988281 "/>
<path fill-rule="evenodd" fill="rgb(0%, 0%, 0%)" fill-opacity="1" d="M 1589.519531 119.820312 C 1564.039062 130.460938 1539.179688 142.75 1513.238281 152.238281 C 1442.679688 178.039062 1360.308594 197.578125 1284.941406 182.480469 C 1273.300781 180.148438 1262.011719 175.488281 1250.898438 171.421875 C 1249.089844 170.761719 1247.078125 171.691406 1246.410156 173.511719 C 1245.75 175.320312 1246.679688 177.328125 1248.488281 178 C 1259.941406 182.191406 1271.578125 186.949219 1283.570312 189.351562 C 1360.171875 204.691406 1443.929688 185.039062 1515.640625 158.808594 C 1541.691406 149.289062 1566.640625 136.960938 1592.21875 126.28125 C 1594 125.53125 1594.839844 123.480469 1594.101562 121.699219 C 1593.351562 119.910156 1591.300781 119.070312 1589.519531 119.820312 "/>
<path fill-rule="evenodd" fill="rgb(0%, 0%, 0%)" fill-opacity="1" d="M 1243.820312 174.671875 C 1233.269531 198.160156 1218.671875 220.410156 1203.609375 241.160156 C 1155 308.121094 1085.480469 358.621094 1003.578125 374.96875 C 983.660156 378.949219 962.378906 377.941406 942.148438 378.019531 C 940.21875 378.03125 938.65625 379.609375 938.664062 381.539062 C 938.671875 383.46875 940.246094 385.03125 942.179688 385.019531 C 962.851562 384.941406 984.59375 385.898438 1004.949219 381.839844 C 1088.589844 365.140625 1159.628906 313.648438 1209.269531 245.269531 C 1224.621094 224.140625 1239.460938 201.460938 1250.199219 177.539062 C 1250.988281 175.78125 1250.210938 173.710938 1248.441406 172.921875 C 1246.679688 172.121094 1244.609375 172.910156 1243.820312 174.671875 "/>
<path fill-rule="evenodd" fill="rgb(0%, 0%, 0%)" fill-opacity="1" d="M 938.664062 388.351562 C 938.664062 398.058594 939.367188 408.378906 937.382812 417.988281 C 932.746094 440.429688 922.613281 461.25 911.746094 481.199219 C 905.839844 492.050781 900.367188 503 891.632812 511.929688 C 864.84375 539.328125 826.953125 555.488281 788.902344 558.449219 C 786.976562 558.601562 785.535156 560.28125 785.6875 562.210938 C 785.835938 564.128906 787.519531 565.570312 789.445312 565.429688 C 829.160156 562.339844 868.679688 545.421875 896.636719 516.828125 C 905.828125 507.429688 911.679688 495.960938 917.894531 484.550781 C 929.089844 464 939.460938 442.53125 944.238281 419.398438 C 946.316406 409.339844 945.664062 398.519531 945.664062 388.351562 C 945.664062 386.421875 944.097656 384.851562 942.164062 384.851562 C 940.234375 384.851562 938.664062 386.421875 938.664062 388.351562 "/>
<path fill-rule="evenodd" fill="rgb(0%, 0%, 0%)" fill-opacity="1" d="M 707.105469 546.128906 C 773.449219 506.289062 802.535156 446.570312 819.472656 373.148438 C 823.734375 354.671875 829.59375 335.429688 828.199219 316.28125 C 828.058594 314.359375 826.382812 312.910156 824.457031 313.050781 C 822.527344 313.191406 821.078125 314.859375 821.21875 316.789062 C 822.5625 335.238281 816.761719 353.769531 812.652344 371.578125 C 796.164062 443.050781 768.089844 501.351562 703.5 540.128906 C 701.84375 541.121094 701.308594 543.28125 702.304688 544.929688 C 703.296875 546.589844 705.449219 547.128906 707.105469 546.128906 "/>
<path fill-rule="evenodd" fill="rgb(0%, 0%, 0%)" fill-opacity="1" d="M 822.78125 314.679688 C 877.257812 307.941406 930.523438 280.621094 975.367188 250.308594 C 1073.128906 184.25 1149.921875 111.761719 1187.160156 -0.390625 C 1187.769531 -2.230469 1186.78125 -4.210938 1184.941406 -4.820312 C 1183.109375 -5.429688 1181.128906 -4.429688 1180.519531 -2.601562 C 1143.78125 108.019531 1067.871094 179.359375 971.445312 244.511719 C 927.488281 274.21875 875.324219 301.121094 821.921875 307.730469 C 820.003906 307.96875 818.640625 309.71875 818.878906 311.628906 C 819.113281 313.550781 820.863281 314.910156 822.78125 314.679688 "/>
<path fill-rule="evenodd" fill="rgb(0%, 0%, 0%)" fill-opacity="1" d="M 1197.769531 12.949219 C 1231.710938 32.351562 1263.289062 51.160156 1300.878906 62.761719 C 1408.679688 96 1533.011719 73.238281 1629.28125 18.238281 C 1630.949219 17.28125 1631.539062 15.140625 1630.578125 13.46875 C 1629.621094 11.789062 1627.480469 11.210938 1625.808594 12.160156 C 1531.148438 66.230469 1408.929688 88.75 1302.941406 56.070312 C 1265.851562 44.628906 1234.730469 26.011719 1201.238281 6.878906 C 1199.558594 5.921875 1197.421875 6.5 1196.460938 8.179688 C 1195.511719 9.859375 1196.089844 11.988281 1197.769531 12.949219 "/>
<path fill-rule="evenodd" fill="rgb(0%, 0%, 0%)" fill-opacity="1" d="M 1624.320312 18.730469 C 1642.308594 66.589844 1664.039062 116.558594 1698.859375 154.789062 C 1753 214.238281 1845.289062 249.589844 1925.480469 254.28125 C 1927.410156 254.390625 1929.070312 252.910156 1929.179688 250.988281 C 1929.289062 249.058594 1927.820312 247.398438 1925.890625 247.289062 C 1847.410156 242.699219 1757.019531 208.261719 1704.039062 150.078125 C 1669.808594 112.5 1648.558594 63.320312 1630.871094 16.269531 C 1630.191406 14.460938 1628.171875 13.539062 1626.359375 14.21875 C 1624.550781 14.898438 1623.640625 16.921875 1624.320312 18.730469 "/>
<path fill-rule="evenodd" fill="rgb(0%, 0%, 0%)" fill-opacity="1" d="M 1922.210938 253.050781 C 1917.671875 274.828125 1912.421875 297.839844 1914.570312 320.28125 C 1921.648438 393.980469 1978.960938 446.46875 2045.5 469.628906 C 2047.328125 470.269531 2049.328125 469.308594 2049.960938 467.480469 C 2050.589844 465.660156 2049.628906 463.660156 2047.808594 463.019531 C 1983.789062 440.738281 1928.339844 390.511719 1921.539062 319.609375 C 1919.449219 297.871094 1924.660156 275.589844 1929.058594 254.480469 C 1929.449219 252.589844 1928.238281 250.730469 1926.351562 250.339844 C 1924.449219 249.941406 1922.601562 251.160156 1922.210938 253.050781 "/>
<path fill-rule="evenodd" fill="rgb(0%, 0%, 0%)" fill-opacity="1" d="M 2044.398438 469.269531 C 1985.050781 535.859375 1961.550781 614.820312 1959.828125 703.46875 C 1958.410156 777.140625 1953.210938 794.859375 1988.21875 858.769531 C 1989.148438 860.46875 1991.28125 861.089844 1992.96875 860.160156 C 1994.671875 859.230469 1995.289062 857.101562 1994.359375 855.410156 C 1960.140625 792.960938 1965.441406 775.601562 1966.828125 703.609375 C 1968.511719 616.691406 1991.429688 539.21875 2049.628906 473.929688 C 2050.910156 472.488281 2050.789062 470.269531 2049.339844 468.988281 C 2047.898438 467.699219 2045.691406 467.828125 2044.398438 469.269531 "/>
<path fill-rule="evenodd" fill="rgb(0%, 0%, 0%)" fill-opacity="1" d="M 1994.71875 859.621094 C 1897.53125 900.640625 1854.21875 1027.828125 1876.148438 1126.648438 C 1876.570312 1128.535156 1878.441406 1129.726562 1880.328125 1129.304688 C 1882.21875 1128.886719 1883.410156 1127.015625 1882.988281 1125.132812 C 1861.730469 1029.339844 1903.230469 905.828125 1997.441406 866.070312 C 1999.21875 865.320312 2000.050781 863.261719 1999.300781 861.480469 C 1998.550781 859.699219 1996.5 858.871094 1994.71875 859.621094 "/>
<path fill-rule="evenodd" fill="rgb(0%, 0%, 0%)" fill-opacity="1" d="M 1880.878906 1121.703125 C 1816.660156 1107.289062 1755.300781 1124.03125 1734.070312 1191.453125 C 1728.921875 1207.800781 1725.609375 1224.511719 1727.621094 1241.710938 C 1727.851562 1243.628906 1729.589844 1245.003906 1731.511719 1244.777344 C 1733.429688 1244.554688 1734.800781 1242.8125 1734.578125 1240.894531 C 1732.679688 1224.6875 1735.898438 1208.960938 1740.75 1193.554688 C 1760.738281 1130.050781 1818.851562 1114.957031 1879.351562 1128.53125 C 1881.230469 1128.953125 1883.109375 1127.769531 1883.53125 1125.882812 C 1883.949219 1124 1882.769531 1122.125 1880.878906 1121.703125 "/>
<path fill-rule="evenodd" fill="rgb(0%, 0%, 0%)" fill-opacity="1" d="M 917.816406 588.691406 C 994.796875 575.070312 1019.558594 484.460938 998.097656 418.261719 C 997.503906 416.421875 995.527344 415.410156 993.6875 416.011719 C 991.851562 416.609375 990.84375 418.578125 991.4375 420.421875 C 1011.699219 482.929688 989.285156 568.941406 916.597656 581.789062 C 914.695312 582.128906 913.425781 583.949219 913.761719 585.851562 C 914.097656 587.75 915.914062 589.019531 917.816406 588.691406 "/>
<path fill-rule="evenodd" fill="rgb(0%, 0%, 0%)" fill-opacity="1" d="M 996.414062 423.910156 C 1048.570312 425.238281 1081.628906 408.238281 1123.691406 377.128906 C 1185.480469 331.410156 1230.921875 263.339844 1251.328125 189.359375 C 1251.839844 187.5 1250.75 185.570312 1248.890625 185.058594 C 1247.03125 184.539062 1245.101562 185.640625 1244.578125 187.5 C 1224.589844 259.988281 1180.078125 326.699219 1119.519531 371.5 C 1078.878906 401.558594 1047 418.191406 996.59375 416.921875 C 994.660156 416.871094 993.054688 418.398438 993.007812 420.328125 C 992.957031 422.261719 994.484375 423.871094 996.414062 423.910156 "/>
<path fill-rule="evenodd" fill="rgb(0%, 0%, 0%)" fill-opacity="1" d="M 1264.640625 226.390625 C 1311.921875 246.289062 1362.859375 257.511719 1414.449219 253.109375 C 1466.679688 248.660156 1515.539062 228.390625 1562.699219 207.101562 C 1564.460938 206.300781 1565.25 204.230469 1564.449219 202.46875 C 1563.660156 200.710938 1561.578125 199.921875 1559.820312 200.71875 C 1513.378906 221.679688 1465.289062 241.75 1413.851562 246.140625 C 1363.410156 250.441406 1313.601562 239.398438 1267.359375 219.941406 C 1265.578125 219.191406 1263.53125 220.03125 1262.78125 221.808594 C 1262.03125 223.589844 1262.871094 225.648438 1264.640625 226.390625 "/>
<path fill-rule="evenodd" fill="rgb(0%, 0%, 0%)" fill-opacity="1" d="M 1018.410156 601.710938 C 1036.101562 590.421875 1048.941406 571.890625 1057.03125 550.570312 C 1069 518.980469 1070.5 481.28125 1062.261719 452.621094 C 1061.71875 450.761719 1059.78125 449.691406 1057.921875 450.21875 C 1056.070312 450.761719 1054.988281 452.699219 1055.53125 454.550781 C 1063.410156 481.929688 1061.921875 517.921875 1050.480469 548.089844 C 1042.960938 567.949219 1031.109375 585.300781 1014.640625 595.808594 C 1013.019531 596.851562 1012.539062 599.019531 1013.578125 600.648438 C 1014.621094 602.269531 1016.78125 602.75 1018.410156 601.710938 "/>
<path fill-rule="evenodd" fill="rgb(0%, 0%, 0%)" fill-opacity="1" d="M 1260.789062 223.078125 C 1243.03125 263.371094 1235.71875 313.300781 1210.960938 349.671875 C 1174.011719 403.96875 1112.808594 422.578125 1053.820312 445.128906 C 1052.011719 445.820312 1051.109375 447.839844 1051.800781 449.648438 C 1052.488281 451.449219 1054.511719 452.359375 1056.320312 451.671875 C 1116.648438 428.609375 1178.960938 409.140625 1216.75 353.609375 C 1241.730469 316.898438 1249.269531 266.570312 1267.191406 225.910156 C 1267.96875 224.140625 1267.171875 222.070312 1265.398438 221.289062 C 1263.628906 220.511719 1261.558594 221.320312 1260.789062 223.078125 "/>
<path fill-rule="evenodd" fill="rgb(0%, 0%, 0%)" fill-opacity="1" d="M 502.390625 112.308594 C 443.210938 104.109375 354.945312 103.691406 295.84375 112.230469 C 224.359375 122.550781 155.136719 142.640625 84.511719 156.820312 C 82.617188 157.199219 81.386719 159.050781 81.769531 160.941406 C 82.148438 162.839844 83.996094 164.070312 85.890625 163.691406 C 156.390625 149.53125 225.488281 129.460938 296.84375 119.160156 C 355.386719 110.699219 442.8125 111.121094 501.433594 119.238281 C 503.34375 119.511719 505.113281 118.171875 505.378906 116.261719 C 505.644531 114.339844 504.304688 112.570312 502.390625 112.308594 "/>
<path fill-rule="evenodd" fill="rgb(0%, 0%, 0%)" fill-opacity="1" d="M 733.625 263.160156 C 760.964844 252.761719 785.113281 235.03125 807.84375 216.980469 C 887.214844 153.949219 915.945312 84.449219 934.886719 -11.761719 C 935.261719 -13.648438 934.023438 -15.5 932.128906 -15.871094 C 930.234375 -16.238281 928.390625 -15.011719 928.019531 -13.109375 C 909.425781 81.320312 881.398438 149.640625 803.492188 211.5 C 781.316406 229.109375 757.808594 246.46875 731.136719 256.609375 C 729.328125 257.300781 728.421875 259.320312 729.109375 261.128906 C 729.796875 262.929688 731.820312 263.839844 733.625 263.160156 "/>
<path fill-rule="evenodd" fill="rgb(0%, 0%, 0%)" fill-opacity="1" d="M 725.410156 257.570312 C 725.410156 377.269531 602.4375 480.089844 488.882812 494.738281 C 486.964844 494.988281 485.609375 496.738281 485.859375 498.660156 C 486.105469 500.570312 487.863281 501.929688 489.777344 501.679688 C 606.460938 486.628906 732.410156 380.570312 732.410156 257.570312 C 732.410156 255.640625 730.84375 254.070312 728.910156 254.070312 C 726.980469 254.070312 725.410156 255.640625 725.410156 257.570312 "/>
<path fill-rule="evenodd" fill="rgb(0%, 0%, 0%)" fill-opacity="1" d="M 384.550781 478.160156 C 409.921875 468.101562 435.085938 458.179688 457.3125 441.859375 C 537.3125 383.148438 576.976562 261.128906 574.808594 163.851562 C 574.765625 161.921875 573.160156 160.378906 571.230469 160.429688 C 569.300781 160.46875 567.765625 162.070312 567.808594 164 C 569.929688 259.210938 531.460938 378.769531 453.171875 436.21875 C 431.429688 452.179688 406.785156 461.820312 381.972656 471.648438 C 380.175781 472.359375 379.296875 474.398438 380.007812 476.191406 C 380.71875 477.988281 382.753906 478.871094 384.550781 478.160156 "/>
<path fill-rule="evenodd" fill="rgb(0%, 0%, 0%)" fill-opacity="1" d="M 570.585938 167.671875 C 620.097656 122.441406 650.777344 64.078125 644.332031 -4.171875 C 644.148438 -6.089844 642.441406 -7.511719 640.519531 -7.328125 C 638.59375 -7.148438 637.179688 -5.441406 637.363281 -3.511719 C 643.59375 62.460938 613.726562 118.78125 565.863281 162.511719 C 564.4375 163.808594 564.335938 166.019531 565.640625 167.449219 C 566.941406 168.878906 569.160156 168.980469 570.585938 167.671875 "/>
<path fill-rule="evenodd" fill="rgb(0%, 0%, 0%)" fill-opacity="1" d="M 871.828125 346.589844 C 956.441406 357.089844 1030.871094 322.328125 1089.941406 266.488281 C 1148.671875 210.96875 1192.191406 134.609375 1215.371094 61.640625 C 1215.949219 59.789062 1214.929688 57.820312 1213.089844 57.238281 C 1211.25 56.660156 1209.28125 57.671875 1208.699219 59.519531 C 1185.851562 131.429688 1143.011719 206.699219 1085.128906 261.410156 C 1027.578125 315.808594 955.132812 349.871094 872.691406 339.640625 C 870.773438 339.410156 869.023438 340.769531 868.785156 342.691406 C 868.546875 344.601562 869.910156 346.351562 871.828125 346.589844 "/>
<path fill-rule="evenodd" fill="rgb(0%, 0%, 0%)" fill-opacity="1" d="M 1205.898438 65.511719 C 1239.890625 109.089844 1292.199219 126.148438 1349.949219 128.578125 C 1435.351562 132.160156 1532.648438 103.699219 1598.441406 83.71875 C 1600.289062 83.160156 1601.339844 81.199219 1600.78125 79.359375 C 1600.210938 77.511719 1598.261719 76.460938 1596.410156 77.019531 C 1531.230469 96.820312 1434.851562 125.128906 1350.238281 121.578125 C 1294.648438 119.25 1244.140625 103.160156 1211.421875 61.210938 C 1210.230469 59.679688 1208.03125 59.410156 1206.511719 60.601562 C 1204.988281 61.789062 1204.710938 63.988281 1205.898438 65.511719 "/>
<path fill-rule="evenodd" fill="rgb(0%, 0%, 0%)" fill-opacity="1" d="M 741.914062 555.851562 C 767.585938 553.71875 788.050781 541.261719 808.355469 526.128906 C 870.660156 479.691406 883.652344 415.269531 876.6875 341.480469 C 876.507812 339.558594 874.800781 338.140625 872.875 338.320312 C 870.953125 338.511719 869.539062 340.210938 869.71875 342.140625 C 876.441406 413.359375 864.3125 475.691406 804.171875 520.519531 C 784.9375 534.851562 765.648438 546.859375 741.339844 548.871094 C 739.414062 549.03125 737.980469 550.71875 738.140625 552.648438 C 738.300781 554.570312 739.992188 556.011719 741.914062 555.851562 "/>
<path fill-rule="evenodd" fill="rgb(0%, 0%, 0%)" fill-opacity="1" d="M 1597.199219 78.230469 C 1607.011719 111.261719 1615.941406 144.128906 1636.640625 172.390625 C 1692.621094 248.828125 1793.921875 272.488281 1882.480469 285.058594 C 1884.390625 285.328125 1886.160156 284 1886.429688 282.089844 C 1886.710938 280.179688 1885.371094 278.398438 1883.460938 278.128906 C 1796.679688 265.808594 1697.148438 243.160156 1642.28125 168.25 C 1622.070312 140.660156 1613.488281 108.488281 1603.910156 76.238281 C 1603.359375 74.378906 1601.410156 73.328125 1599.558594 73.878906 C 1597.710938 74.429688 1596.648438 76.378906 1597.199219 78.230469 "/>
<path fill-rule="evenodd" fill="rgb(0%, 0%, 0%)" fill-opacity="1" d="M 1880.851562 282.238281 C 1862.398438 310.421875 1860.609375 344.359375 1869.519531 377.261719 C 1882.730469 426.039062 1919.511719 472.480469 1959.109375 493.871094 C 1960.808594 494.789062 1962.941406 494.160156 1963.859375 492.460938 C 1964.769531 490.761719 1964.140625 488.628906 1962.441406 487.710938 C 1924.320312 467.121094 1888.988281 422.378906 1876.269531 375.429688 C 1867.898438 344.5 1869.359375 312.570312 1886.710938 286.078125 C 1887.769531 284.460938 1887.308594 282.289062 1885.699219 281.230469 C 1884.078125 280.171875 1881.910156 280.628906 1880.851562 282.238281 "/>
<path fill-rule="evenodd" fill="rgb(0%, 0%, 0%)" fill-opacity="1" d="M 1953.769531 493.671875 C 1899.75 568.699219 1872.988281 657.601562 1883.308594 749.5 C 1886.441406 777.429688 1888.539062 807.441406 1903.328125 831.96875 C 1904.328125 833.621094 1906.480469 834.160156 1908.140625 833.160156 C 1909.789062 832.160156 1910.328125 830.011719 1909.328125 828.359375 C 1895.050781 804.679688 1893.289062 775.671875 1890.261719 748.71875 C 1880.140625 658.558594 1906.460938 571.371094 1959.449219 497.761719 C 1960.578125 496.191406 1960.21875 494 1958.660156 492.871094 C 1957.089844 491.738281 1954.898438 492.101562 1953.769531 493.671875 "/>
<path fill-rule="evenodd" fill="rgb(0%, 0%, 0%)" fill-opacity="1" d="M 1903.148438 830.078125 C 1878.070312 841.378906 1849.21875 853.699219 1827.71875 871.769531 C 1793.859375 900.210938 1752.050781 960.070312 1754.710938 1009.230469 C 1754.820312 1011.160156 1756.46875 1012.640625 1758.398438 1012.53125 C 1760.328125 1012.429688 1761.808594 1010.78125 1761.699219 1008.851562 C 1759.140625 961.660156 1799.71875 904.429688 1832.21875 877.128906 C 1853.238281 859.460938 1881.511719 847.511719 1906.03125 836.460938 C 1907.789062 835.671875 1908.570312 833.601562 1907.78125 831.828125 C 1906.988281 830.070312 1904.910156 829.289062 1903.148438 830.078125 "/>
<path fill-rule="evenodd" fill="rgb(0%, 0%, 0%)" fill-opacity="1" d="M 1781.011719 1035.550781 C 1726.128906 1033.808594 1669.988281 1047.671875 1653.800781 1106.410156 C 1653.28125 1108.273438 1654.378906 1110.203125 1656.238281 1110.714844 C 1658.101562 1111.230469 1660.03125 1110.132812 1660.539062 1108.273438 C 1675.78125 1052.988281 1729.148438 1040.898438 1780.78125 1042.539062 C 1782.710938 1042.601562 1784.328125 1041.089844 1784.390625 1039.160156 C 1784.449219 1037.21875 1782.941406 1035.609375 1781.011719 1035.550781 "/>
<path fill-rule="evenodd" fill="rgb(0%, 0%, 0%)" fill-opacity="1" d="M 1787.660156 1037.910156 C 1816.898438 956.078125 1862.511719 870.589844 1955.78125 850.820312 C 1957.671875 850.421875 1958.878906 848.558594 1958.480469 846.671875 C 1958.078125 844.78125 1956.21875 843.570312 1954.328125 843.980469 C 1858.550781 864.28125 1811.089844 951.519531 1781.070312 1035.558594 C 1780.421875 1037.371094 1781.371094 1039.378906 1783.179688 1040.03125 C 1785 1040.679688 1787.011719 1039.730469 1787.660156 1037.910156 "/>
<path fill-rule="evenodd" fill="rgb(0%, 0%, 0%)" fill-opacity="1" d="M 1804.410156 1376.285156 C 1828.640625 1285.496094 1860.25 1222.929688 1958.019531 1202.800781 C 1959.910156 1202.410156 1961.128906 1200.558594 1960.738281 1198.664062 C 1960.351562 1196.773438 1958.5 1195.554688 1956.609375 1195.945312 C 1855.738281 1216.710938 1822.640625 1280.820312 1797.648438 1374.480469 C 1797.148438 1376.347656 1798.261719 1378.269531 1800.128906 1378.765625 C 1802 1379.265625 1803.921875 1378.152344 1804.410156 1376.285156 "/>
<path fill-rule="evenodd" fill="rgb(0%, 0%, 0%)" fill-opacity="1" d="M 1961.378906 1205.21875 C 1961.378906 1168.148438 1958.988281 1129.945312 1962.648438 1092.988281 C 1969.210938 1026.761719 2006.839844 921.050781 2064.609375 879.03125 C 2066.179688 877.890625 2066.519531 875.699219 2065.390625 874.140625 C 2064.25 872.578125 2062.058594 872.230469 2060.5 873.371094 C 2001.328125 916.410156 1962.410156 1024.46875 1955.691406 1092.300781 C 1952.011719 1129.484375 1954.378906 1167.917969 1954.378906 1205.21875 C 1954.378906 1207.148438 1955.949219 1208.71875 1957.878906 1208.71875 C 1959.808594 1208.71875 1961.378906 1207.148438 1961.378906 1205.21875 "/>
<path fill-rule="evenodd" fill="rgb(0%, 0%, 0%)" fill-opacity="1" d="M 2064.890625 876.019531 C 2037.609375 742.410156 2039.261719 600.359375 2106.738281 477.820312 C 2107.671875 476.128906 2107.058594 474 2105.359375 473.070312 C 2103.671875 472.128906 2101.539062 472.75 2100.609375 474.441406 C 2032.320312 598.460938 2030.421875 742.210938 2058.03125 877.421875 C 2058.421875 879.308594 2060.269531 880.539062 2062.160156 880.148438 C 2064.050781 879.761719 2065.28125 877.910156 2064.890625 876.019531 "/>
<path fill-rule="evenodd" fill="rgb(0%, 0%, 0%)" fill-opacity="1" d="M 2006.269531 181.898438 C 1982.210938 279.800781 2002.28125 391.398438 2097.53125 441.78125 C 2099.238281 442.691406 2101.359375 442.03125 2102.261719 440.320312 C 2103.160156 438.621094 2102.511719 436.5 2100.800781 435.589844 C 2008.519531 386.78125 1989.761719 278.421875 2013.070312 183.570312 C 2013.53125 181.699219 2012.378906 179.800781 2010.511719 179.339844 C 2008.628906 178.878906 2006.730469 180.03125 2006.269531 181.898438 "/>
<path fill-rule="evenodd" fill="rgb(0%, 0%, 0%)" fill-opacity="1" d="M 2009.941406 180.601562 C 1909.378906 158.160156 1824.871094 124.480469 1737.398438 69.160156 C 1702.058594 46.800781 1668.171875 27.070312 1641.140625 -5.25 C 1639.898438 -6.730469 1637.691406 -6.929688 1636.210938 -5.691406 C 1634.730469 -4.449219 1634.53125 -2.238281 1635.769531 -0.761719 C 1663.28125 32.140625 1697.691406 52.320312 1733.660156 75.070312 C 1821.839844 130.851562 1907.03125 164.808594 2008.421875 187.441406 C 2010.300781 187.859375 2012.171875 186.671875 2012.589844 184.78125 C 2013.019531 182.898438 2011.828125 181.019531 2009.941406 180.601562 "/>
<path fill-rule="evenodd" fill="rgb(0%, 0%, 0%)" fill-opacity="1" d="M 2060.660156 139.621094 C 2038.328125 133.171875 2014.769531 124.929688 1994.988281 112.121094 C 1939.558594 76.21875 1903.28125 8.789062 1878.660156 -50.371094 C 1877.921875 -52.160156 1875.871094 -53 1874.089844 -52.261719 C 1872.300781 -51.519531 1871.460938 -49.46875 1872.199219 -47.679688 C 1897.328125 12.710938 1934.609375 81.351562 1991.191406 118 C 2011.53125 131.171875 2035.75 139.710938 2058.710938 146.339844 C 2060.570312 146.878906 2062.511719 145.808594 2063.050781 143.949219 C 2063.578125 142.101562 2062.511719 140.160156 2060.660156 139.621094 "/>
<path fill-rule="evenodd" fill="rgb(0%, 0%, 0%)" fill-opacity="1" d="M 2051.128906 150.519531 C 2070.261719 211.949219 2099.171875 286.898438 2150.46875 328.910156 C 2151.96875 330.140625 2154.171875 329.921875 2155.398438 328.421875 C 2156.621094 326.929688 2156.398438 324.71875 2154.910156 323.5 C 2104.609375 282.308594 2076.570312 208.660156 2057.808594 148.441406 C 2057.238281 146.589844 2055.28125 145.558594 2053.429688 146.128906 C 2051.589844 146.710938 2050.558594 148.671875 2051.128906 150.519531 "/>
<path fill-rule="evenodd" fill="rgb(0%, 0%, 0%)" fill-opacity="1" d="M 1855.769531 1467.96875 C 1861.191406 1366.582031 1932.929688 1287.726562 2027.820312 1264.757812 C 2029.699219 1264.300781 2030.851562 1262.410156 2030.398438 1260.53125 C 2029.941406 1258.652344 2028.050781 1257.5 2026.171875 1257.953125 C 1928.308594 1281.644531 1854.371094 1363.027344 1848.78125 1467.59375 C 1848.671875 1469.519531 1850.148438 1471.171875 1852.078125 1471.273438 C 1854.011719 1471.378906 1855.660156 1469.894531 1855.769531 1467.96875 "/>
<path fill-rule="evenodd" fill="rgb(0%, 0%, 0%)" fill-opacity="1" d="M 2029.28125 1270.035156 C 2041.230469 1223.222656 2063.789062 1169.050781 2110.089844 1147.152344 C 2111.839844 1146.324219 2112.589844 1144.238281 2111.761719 1142.488281 C 2110.929688 1140.742188 2108.839844 1139.996094 2107.101562 1140.824219 C 2058.929688 1163.601562 2034.929688 1219.605469 2022.5 1268.304688 C 2022.019531 1270.175781 2023.148438 1272.082031 2025.019531 1272.5625 C 2026.890625 1273.039062 2028.800781 1271.90625 2029.28125 1270.035156 "/>
<path fill-rule="evenodd" fill="rgb(0%, 0%, 0%)" fill-opacity="1" d="M 1901.191406 1554.0625 C 1944.539062 1464.710938 1996.5 1363.382812 2099.328125 1334.503906 C 2101.191406 1333.980469 2102.28125 1332.046875 2101.75 1330.1875 C 2101.230469 1328.328125 2099.300781 1327.242188 2097.441406 1327.765625 C 1992.628906 1357.199219 1939.070312 1459.9375 1894.890625 1551.007812 C 1894.050781 1552.746094 1894.78125 1554.839844 1896.519531 1555.683594 C 1898.25 1556.527344 1900.351562 1555.800781 1901.191406 1554.0625 "/>
<path fill-rule="evenodd" fill="rgb(0%, 0%, 0%)" fill-opacity="1" d="M 1812.378906 1408.382812 C 1812.378906 1476.425781 1807.601562 1542.695312 1803.828125 1610.507812 C 1801.539062 1651.667969 1802.621094 1692.753906 1797.558594 1733.734375 C 1777.28125 1898.328125 1712.710938 2054.023438 1610.140625 2184.566406 C 1608.941406 2186.085938 1609.210938 2188.289062 1610.730469 2189.480469 C 1612.238281 2190.675781 1614.449219 2190.410156 1615.640625 2188.890625 C 1719 2057.34375 1784.070312 1900.453125 1804.511719 1734.59375 C 1809.578125 1693.453125 1808.519531 1652.214844 1810.820312 1610.894531 C 1814.601562 1542.953125 1819.378906 1476.554688 1819.378906 1408.382812 C 1819.378906 1406.453125 1817.808594 1404.882812 1815.878906 1404.882812 C 1813.949219 1404.882812 1812.378906 1406.453125 1812.378906 1408.382812 "/>
<path fill-rule="evenodd" fill="rgb(0%, 0%, 0%)" fill-opacity="1" d="M 1148.839844 646.679688 C 1134.75 609.96875 1114.039062 580.070312 1075.808594 564.789062 C 1066.261719 560.980469 1056.351562 562.238281 1047.039062 566.371094 C 1033.859375 572.230469 1021.929688 583.921875 1014.390625 593.851562 C 1011.269531 597.949219 1008.75 602.78125 1005.511719 606.539062 C 1002.890625 609.578125 999.726562 611.839844 994.902344 611.710938 C 965.613281 610.929688 938.371094 592.839844 911.429688 584.109375 C 895.078125 578.808594 880.316406 582.398438 863.882812 580.539062 C 855.277344 579.558594 849.71875 576.890625 845.128906 575.050781 C 840.84375 573.339844 837.214844 572.339844 833.21875 573.039062 C 829.367188 573.71875 825.039062 576.039062 819.390625 581.539062 C 815.515625 585.308594 811.613281 589.058594 807.890625 592.980469 C 805.171875 595.839844 802.015625 600.398438 800.09375 603.761719 C 783.554688 632.738281 781.050781 667.320312 781.71875 702.480469 C 782.371094 736.808594 786.035156 771.679688 781.804688 802.160156 C 769.554688 890.421875 788.820312 967.578125 808.992188 1051.058594 C 838.96875 1175.113281 870.84375 1313.261719 801.675781 1523.761719 C 801.070312 1525.597656 802.070312 1527.574219 803.90625 1528.179688 C 805.742188 1528.78125 807.722656 1527.78125 808.324219 1525.945312 C 878.054688 1313.742188 846.015625 1174.472656 815.796875 1049.410156 C 795.835938 966.800781 776.617188 890.460938 788.738281 803.128906 C 793.015625 772.308594 789.378906 737.050781 788.71875 702.351562 C 788.074219 668.488281 790.246094 635.140625 806.171875 607.230469 C 807.851562 604.289062 810.59375 600.300781 812.96875 597.800781 C 816.625 593.949219 820.464844 590.269531 824.273438 586.558594 C 828.496094 582.441406 831.5625 580.449219 834.4375 579.941406 C 837.167969 579.460938 839.601562 580.378906 842.53125 581.558594 C 847.5625 583.558594 853.667969 586.421875 863.089844 587.488281 C 879.046875 589.308594 893.394531 585.628906 909.269531 590.769531 C 936.820312 599.691406 964.769531 617.910156 994.714844 618.710938 C 1001.988281 618.898438 1006.851562 615.699219 1010.808594 611.109375 C 1014.140625 607.25 1016.761719 602.300781 1019.960938 598.078125 C 1026.890625 588.96875 1037.78125 578.148438 1049.890625 572.769531 C 1057.441406 569.410156 1065.46875 568.199219 1073.210938 571.289062 C 1109.488281 585.789062 1128.929688 614.351562 1142.308594 649.191406 C 1143 650.988281 1145.03125 651.890625 1146.828125 651.199219 C 1148.628906 650.511719 1149.53125 648.480469 1148.839844 646.679688 "/>
<path fill-rule="evenodd" fill="rgb(0%, 0%, 0%)" fill-opacity="1" d="M 1592.871094 817.179688 C 1579.101562 833.410156 1557.558594 854.570312 1543.359375 877.878906 C 1533.539062 893.980469 1527.238281 911.121094 1528.878906 928.371094 C 1532.191406 963.210938 1557.390625 982.738281 1586.328125 999.011719 C 1613.808594 1014.460938 1644.691406 1026.871094 1660.980469 1048.410156 C 1683.96875 1078.800781 1678.96875 1102.191406 1673.320312 1122.363281 C 1669.199219 1137.078125 1664.988281 1150.261719 1669 1163.089844 C 1680.378906 1199.445312 1699.660156 1225.628906 1717.480469 1250.179688 C 1734.769531 1274.011719 1750.699219 1296.234375 1755.878906 1325.285156 C 1760.308594 1350.128906 1755.570312 1376.734375 1748.808594 1403.148438 C 1741.898438 1430.164062 1732.871094 1456.976562 1728.859375 1481.550781 C 1711.050781 1590.792969 1708.71875 1696.324219 1674.089844 1802.699219 C 1673.488281 1804.539062 1674.5 1806.515625 1676.328125 1807.113281 C 1678.171875 1807.710938 1680.148438 1806.703125 1680.738281 1804.867188 C 1715.488281 1698.140625 1717.898438 1592.277344 1735.769531 1482.679688 C 1739.75 1458.289062 1748.738281 1431.691406 1755.589844 1404.882812 C 1762.601562 1377.46875 1767.371094 1349.839844 1762.769531 1324.054688 C 1757.390625 1293.929688 1741.078125 1270.78125 1723.140625 1246.066406 C 1705.730469 1222.074219 1686.800781 1196.53125 1675.679688 1160.996094 C 1672.050781 1149.40625 1676.339844 1137.546875 1680.058594 1124.25 C 1686.179688 1102.40625 1691.460938 1077.101562 1666.558594 1044.191406 C 1649.75 1021.96875 1618.109375 1008.851562 1589.761719 992.910156 C 1562.871094 977.789062 1538.921875 960.078125 1535.851562 927.710938 C 1534.351562 911.910156 1540.339844 896.269531 1549.328125 881.519531 C 1563.339844 858.539062 1584.628906 837.710938 1598.210938 821.710938 C 1599.460938 820.238281 1599.28125 818.03125 1597.800781 816.78125 C 1596.328125 815.53125 1594.121094 815.710938 1592.871094 817.179688 "/>
</svg>
