<?xml version="1.0" standalone="no"?>
<!DOCTYPE svg PUBLIC "-//W3C//DTD SVG 20010904//EN"
 "http://www.w3.org/TR/2001/REC-SVG-20010904/DTD/svg10.dtd">
<svg version="1.0" xmlns="http://www.w3.org/2000/svg"
 width="1024.000000pt" height="1024.000000pt" viewBox="0 0 1024.000000 1024.000000"
 preserveAspectRatio="xMidYMid meet">

<g transform="translate(0.000000,1024.000000) scale(0.100000,-0.100000)"
fill="#000000" stroke="none">
<path d="M551 10221 c8 -11 41 -52 74 -92 l59 -72 -33 -96 c-66 -190 -133
-295 -272 -425 -78 -73 -216 -171 -326 -232 -33 -18 -53 -36 -53 -46 0 -10 4
-18 8 -18 4 0 63 34 131 75 298 180 465 375 547 638 10 31 21 57 25 57 12 0
51 -44 116 -128 l56 -73 -43 -167 c-109 -426 -271 -799 -518 -1192 -121 -191
-182 -277 -257 -358 -57 -62 -65 -75 -65 -110 0 -36 3 -40 29 -45 33 -7 50
-32 111 -168 159 -350 228 -707 201 -1032 -21 -254 -70 -426 -182 -647 -84
-166 -124 -230 -144 -230 -8 0 -15 -9 -15 -21 0 -15 5 -19 18 -15 151 43 254
65 283 60 98 -18 338 -122 491 -213 438 -261 730 -606 835 -988 25 -89 27
-114 28 -268 l0 -170 -58 -98 c-32 -54 -60 -97 -62 -95 -2 1 -15 49 -30 106
-69 263 -186 479 -443 821 -296 393 -612 642 -994 786 -64 23 -68 24 -68 6 0
-13 16 -24 63 -41 341 -125 660 -372 942 -735 247 -316 406 -602 464 -832 42
-167 47 -144 -79 -356 -61 -103 -114 -187 -118 -187 -4 0 -22 28 -39 63 -53
106 -190 286 -312 407 -229 229 -475 356 -858 444 -59 13 -63 13 -63 -4 0 -14
16 -21 77 -35 131 -29 342 -103 456 -162 235 -120 417 -288 599 -553 36 -52
78 -119 92 -148 l27 -54 -137 -221 c-76 -122 -178 -287 -227 -367 -49 -80 -93
-149 -97 -154 -5 -5 -38 17 -75 48 -191 162 -374 243 -586 261 -92 8 -129 2
-129 -19 0 -10 29 -15 113 -19 135 -6 202 -23 326 -83 102 -49 185 -104 270
-181 l54 -48 -108 -170 c-60 -94 -215 -334 -345 -535 -322 -496 -310 -477
-310 -508 1 -26 1 -26 16 -7 16 21 144 217 369 567 77 119 143 217 147 217 4
1 4 -14 0 -31 -4 -18 -7 -197 -7 -398 1 -329 3 -378 23 -495 31 -184 71 -377
146 -707 36 -158 66 -291 66 -296 0 -12 -43 -37 -330 -187 -124 -65 -270 -142
-325 -171 -98 -52 -125 -74 -88 -74 34 0 683 344 1061 562 216 124 356 211
572 354 210 139 328 231 447 347 51 50 86 78 92 72 4 -6 42 -62 83 -125 140
-213 378 -522 726 -940 201 -241 228 -270 253 -270 17 0 10 13 -42 73 -371
429 -754 919 -937 1200 -65 100 -70 111 -61 140 12 40 102 401 163 647 53 218
161 692 206 905 17 83 42 200 55 260 41 188 155 785 155 810 0 5 30 -20 68
-57 75 -74 138 -109 250 -141 72 -19 102 -21 442 -22 218 0 419 -6 499 -13
270 -27 556 14 1181 167 238 58 433 95 650 123 139 17 600 17 740 0 242 -31
517 -90 726 -156 93 -30 107 -31 102 -9 -4 20 -86 47 -333 108 -443 109 -824
137 -1245 90 -245 -28 -369 -52 -855 -170 -448 -108 -711 -139 -987 -115 -98
8 -301 14 -508 14 -374 1 -405 5 -526 62 -57 27 -164 132 -164 161 0 10 7 38
16 63 9 25 20 101 24 170 7 123 8 127 68 270 61 146 89 252 76 293 -3 12 -22
38 -41 58 l-34 36 11 64 c6 35 21 154 33 264 l22 200 88 43 c48 23 85 47 82
52 -10 16 -33 11 -96 -21 -34 -17 -63 -28 -65 -26 -3 3 2 74 10 158 31 305 38
565 32 1109 l-1 74 390 194 c215 106 399 199 410 205 11 6 116 60 233 119
l212 109 68 -27 c192 -78 370 9 499 245 l52 94 123 64 c68 36 207 107 311 159
176 89 190 95 231 89 92 -14 267 65 471 211 172 124 236 163 318 193 64 23 86
26 197 25 133 0 180 -9 425 -79 180 -51 295 -69 890 -141 322 -38 714 -115
864 -169 30 -10 48 -12 55 -5 17 17 -4 28 -129 64 -207 59 -457 104 -840 151
-620 75 -624 76 -1000 181 -90 25 -117 28 -261 28 -119 1 -157 4 -145 12 9 6
112 62 230 124 l214 113 281 -11 c155 -6 412 -18 571 -26 160 -9 382 -20 495
-26 397 -20 746 -90 1160 -232 288 -100 635 -264 838 -396 21 -13 22 -13 22 9
0 20 -24 37 -158 111 -445 246 -929 415 -1424 497 -216 36 -346 48 -603 56
-104 3 -347 15 -540 25 -192 11 -402 20 -465 20 -135 1 -136 -1 30 87 288 154
769 432 845 489 46 35 733 287 1340 492 218 74 556 176 788 238 95 25 176 50
181 55 53 49 -442 -81 -964 -254 -368 -122 -1011 -352 -1264 -453 -16 -6 -18
-4 -14 17 12 53 186 611 215 685 3 9 -2 14 -15 14 -23 0 -29 -17 -167 -465
-47 -154 -91 -283 -98 -287 -132 -84 -327 -200 -344 -204 -40 -11 -396 182
-588 318 -135 95 -276 235 -351 349 -58 87 -133 243 -134 277 0 9 -10 12 -28
10 -22 -2 -51 -30 -131 -123 -146 -169 -180 -205 -195 -205 -31 0 -177 56
-267 101 -99 51 -196 129 -240 193 -13 20 -32 36 -41 36 -24 0 -23 -4 11 -53
77 -113 241 -220 430 -283 44 -15 81 -30 81 -34 0 -5 -59 -74 -131 -153 l-130
-146 -67 -7 c-36 -4 -163 -4 -282 -1 -176 5 -237 11 -337 31 -286 60 -567 183
-749 327 -85 67 -146 136 -140 157 6 20 36 151 36 158 0 2 -8 4 -19 4 -15 0
-21 -15 -35 -82 -9 -45 -21 -85 -27 -89 -12 -7 -216 -40 -379 -61 -129 -16
-570 -16 -690 0 -294 41 -534 108 -720 202 -37 19 -74 30 -97 29 -35 -1 -29
-5 80 -58 178 -87 384 -150 627 -192 99 -17 181 -22 395 -26 283 -5 419 4 670
47 60 10 110 18 111 17 2 -2 -45 -192 -65 -263 -11 -40 -14 -42 -118 -91 -155
-73 -210 -83 -465 -83 -346 0 -522 23 -747 96 -180 59 -340 147 -496 273 -27
23 -55 41 -60 41 -6 0 -29 54 -50 120 l-39 120 -42 0 c-38 0 -43 -3 -71 -47
-88 -140 -197 -236 -358 -314 -178 -87 -379 -120 -599 -99 -174 17 -208 24
-226 51 -8 13 -41 55 -72 94 -32 38 -58 75 -58 82 0 6 24 19 54 27 84 25 261
98 371 154 98 50 99 51 60 51 -23 1 -54 -7 -72 -19 -48 -29 -202 -93 -335
-139 l-117 -40 -78 99 c-58 73 -84 99 -102 99 -21 1 -22 -1 -10 -18z m1663
-116 c20 -61 36 -119 36 -129 0 -38 -102 -225 -167 -305 -152 -191 -365 -301
-577 -301 -119 1 -263 31 -283 60 -9 12 -69 91 -134 174 -64 83 -116 152 -114
154 2 2 50 -2 107 -9 150 -17 348 -7 473 25 237 61 416 184 553 379 30 43 58
75 62 70 4 -4 24 -58 44 -118z m4286 47 c22 -66 93 -195 152 -273 145 -192
400 -382 755 -562 68 -34 123 -64 123 -67 0 -3 -80 -49 -178 -103 l-177 -99
-67 7 c-240 23 -462 129 -639 305 -104 103 -169 195 -229 324 -59 128 -66 156
-44 193 32 51 274 324 284 318 5 -3 14 -22 20 -43z m-2025 -304 c156 -112 475
-242 710 -291 80 -16 154 -21 370 -26 l270 -6 -157 -171 -158 -171 -82 -11
c-370 -52 -756 58 -996 283 -76 71 -137 148 -184 233 l-35 62 27 102 c15 57
30 116 34 131 l7 28 62 -57 c34 -31 94 -79 132 -106z m-2102 53 c182 -142 357
-226 596 -286 147 -37 207 -44 451 -56 364 -18 467 -5 648 77 41 19 77 32 80
30 6 -6 -97 -337 -109 -353 -12 -14 -140 -57 -214 -72 -190 -38 -511 -38 -688
-1 -212 45 -429 134 -617 254 l-84 54 -67 201 c-37 111 -65 201 -63 201 2 0
32 -22 67 -49z m-37 -163 l52 -156 -35 -54 c-114 -172 -339 -331 -536 -378
-140 -34 -294 -21 -387 32 -29 16 -154 167 -146 175 1 2 52 -4 112 -13 88 -13
124 -14 187 -5 274 38 513 223 649 501 24 50 43 79 46 70 3 -8 29 -85 58 -172z
m3848 -9 c125 -351 479 -643 849 -701 91 -14 103 -3 -137 -132 -204 -111 -172
-107 -361 -44 -255 86 -424 197 -527 346 -42 61 -104 197 -123 267 l-15 59 33
36 c18 19 80 86 137 148 57 62 106 109 110 105 4 -4 19 -42 34 -84z m-5172
-81 c51 -67 116 -152 144 -189 l51 -66 -9 -79 c-19 -184 -88 -416 -177 -599
-171 -349 -385 -537 -802 -705 -130 -53 -143 -56 -184 -40 l-27 10 75 80 c182
194 485 707 626 1062 58 146 131 369 160 488 28 115 41 160 45 160 2 0 46 -55
98 -122z m3234 -25 c54 -95 216 -254 319 -315 256 -152 568 -215 854 -172 l45
7 -22 -29 c-12 -16 -102 -112 -200 -214 l-179 -184 -119 48 c-251 102 -411
200 -544 335 -136 137 -201 245 -235 388 -11 45 -10 60 9 127 11 42 24 76 27
76 4 0 24 -30 45 -67z m-1779 -288 l53 -170 -62 -57 c-104 -95 -218 -153 -361
-186 -89 -19 -426 -23 -469 -5 -23 10 -168 188 -168 205 0 4 21 0 48 -8 26 -8
83 -18 127 -21 233 -16 543 147 723 381 30 39 48 55 51 45 2 -8 28 -90 58
-184z m58 115 c179 -119 445 -218 695 -261 185 -32 547 -8 718 46 42 13 78 22
80 20 7 -7 -50 -159 -62 -168 -46 -32 -371 -102 -541 -117 -218 -19 -453 13
-628 86 -111 46 -234 123 -245 152 -14 35 -82 266 -82 276 0 8 8 4 65 -34z
m3339 -31 c31 -108 103 -234 184 -320 117 -125 259 -208 477 -279 55 -18 109
-35 119 -39 23 -9 2 -21 -349 -205 -216 -114 -221 -116 -286 -116 -127 0 -287
56 -372 130 -116 102 -175 283 -152 465 6 55 11 63 78 134 40 42 116 125 170
184 54 59 102 107 107 107 4 0 15 -27 24 -61z m-1714 -1 c21 -73 76 -172 138
-249 155 -196 325 -307 706 -463 l40 -17 -50 -50 -49 -51 -70 6 c-204 16 -488
194 -624 391 -50 72 -161 291 -161 318 0 22 43 157 50 157 4 0 13 -19 20 -42z
m-2823 -181 c31 -45 31 -52 2 -217 -98 -556 -302 -911 -617 -1073 -83 -43
-256 -107 -288 -107 -14 0 -275 88 -282 95 -2 1 48 24 110 50 411 171 633 370
803 719 87 178 175 474 175 588 0 19 3 38 7 42 8 8 45 -31 90 -97z m2777 -79
c86 -192 203 -332 366 -440 140 -93 297 -158 382 -158 15 0 29 -4 32 -8 3 -5
-26 -39 -63 -76 l-69 -68 -108 21 c-194 39 -349 137 -471 298 -62 83 -128 204
-159 291 l-18 52 28 85 c15 47 31 85 35 85 5 0 25 -37 45 -82z m-2524 -326 c0
-80 -15 -145 -69 -312 -109 -332 -265 -540 -489 -649 -62 -31 -101 -41 -267
-71 -132 -24 -165 -24 -230 -1 l-49 17 84 28 c433 143 689 514 801 1161 11 66
22 126 25 134 2 8 44 -39 99 -113 l95 -127 0 -67z m1011 97 c34 -116 50 -185
45 -202 -3 -14 -33 -53 -67 -86 -111 -112 -276 -172 -514 -187 l-100 -7 -157
214 c-86 117 -156 215 -154 216 1 2 40 -2 87 -8 101 -14 296 1 416 31 108 28
226 88 307 160 39 33 73 57 77 53 4 -5 31 -87 60 -184z m63 151 c85 -47 247
-105 349 -126 102 -20 363 -29 473 -15 97 12 379 72 428 90 16 7 31 9 34 6 3
-2 -28 -93 -69 -201 l-74 -197 -50 -23 c-100 -46 -300 -84 -445 -84 -103 0
-319 28 -387 51 -59 19 -181 97 -214 135 -9 11 -40 100 -69 199 -29 99 -55
185 -57 192 -8 20 2 16 81 -27z m2794 -117 c1 -220 98 -385 275 -468 71 -34
172 -65 212 -65 11 0 26 -4 34 -9 10 -7 -11 -22 -80 -56 -52 -26 -152 -79
-222 -117 l-129 -69 -96 22 c-81 19 -104 21 -156 12 -55 -10 -63 -9 -83 9 -56
51 -109 216 -120 375 l-6 83 89 92 c102 107 278 288 280 288 0 0 1 -44 2 -97z
m-1433 -37 c72 -167 210 -334 349 -424 78 -51 234 -111 294 -113 74 -2 71 -9
-52 -125 -65 -60 -125 -112 -134 -116 -31 -12 -226 -8 -294 7 -198 42 -333
167 -370 345 -11 55 -11 58 37 175 26 66 62 161 80 210 45 123 47 127 52 121
3 -3 20 -39 38 -80z m-2231 -304 l156 -214 -6 -56 c-20 -203 -54 -342 -114
-465 -75 -155 -174 -253 -339 -341 l-91 -47 -197 69 c-109 38 -267 93 -352
123 -113 39 -149 55 -135 60 10 4 69 17 129 29 139 28 167 37 261 91 140 80
285 251 370 435 50 107 122 330 135 417 15 98 19 120 23 116 2 -2 74 -100 160
-217z m944 -165 l62 -222 -21 -62 c-67 -200 -211 -299 -382 -264 l-56 12 -82
117 c-45 64 -122 172 -171 238 -48 67 -88 127 -88 133 0 7 24 11 63 11 35 0
106 7 158 16 172 30 286 84 387 186 31 32 59 58 62 58 3 0 33 -100 68 -223z
m48 154 c86 -57 150 -79 287 -97 229 -30 444 -16 621 40 50 16 76 20 76 12 0
-6 -29 -82 -65 -169 -52 -129 -73 -169 -115 -217 -122 -141 -366 -191 -531
-108 -70 35 -166 121 -194 172 -11 20 -25 36 -31 36 -6 0 -23 44 -38 98 -14
53 -37 136 -50 185 -14 48 -23 87 -21 87 1 0 29 -18 61 -39z m2274 -25 c0
-110 45 -264 101 -350 17 -26 30 -48 28 -50 -2 -1 -31 -20 -63 -41 -55 -37
-127 -119 -162 -187 -8 -16 -20 -28 -26 -28 -6 0 -34 24 -63 53 -70 70 -95
138 -102 275 l-6 102 139 140 c76 77 142 140 146 140 4 0 8 -24 8 -54z m-1201
-269 c91 -133 260 -207 478 -210 57 -1 103 -4 103 -7 0 -3 -30 -33 -67 -67
-38 -33 -119 -108 -182 -167 -63 -58 -119 -106 -125 -106 -5 0 -20 10 -33 22
-17 16 -26 19 -35 10 -8 -8 -8 -15 2 -26 18 -23 -9 -31 -100 -31 -84 1 -119
14 -174 69 -57 57 -89 136 -94 230 -4 88 -9 71 83 296 69 170 64 164 89 94 12
-32 37 -81 55 -107z m2281 129 c0 -6 -186 -137 -246 -173 -80 -48 -195 -96
-244 -100 -39 -4 -12 13 220 136 279 148 270 143 270 137z m-3987 -318 c145
-203 156 -221 163 -275 11 -91 -2 -241 -27 -309 -30 -79 -110 -159 -203 -204
-84 -40 -123 -41 -218 -7 -40 14 -145 51 -233 82 -88 31 -166 60 -174 65 -10
5 5 17 50 39 92 45 189 120 248 191 60 72 141 234 171 340 18 64 49 253 50
300 0 20 2 18 173 -222z m2587 118 c0 -136 51 -249 146 -321 56 -43 46 -58
-80 -124 -118 -62 -137 -63 -196 -3 -48 48 -78 131 -86 236 -6 79 -6 83 15 89
11 3 21 13 21 23 0 16 155 172 173 174 4 0 7 -33 7 -74z m-1692 -204 c69 -33
87 -37 172 -40 132 -5 249 27 329 90 13 10 26 16 28 14 3 -2 -21 -64 -53 -137
-66 -150 -61 -146 -204 -175 -119 -24 -222 -15 -304 25 -34 17 -70 38 -78 48
-13 15 -88 291 -88 324 0 5 27 -18 61 -52 42 -42 85 -72 137 -97z m2407 124
l40 -12 -44 -23 c-30 -16 -53 -21 -75 -17 -37 7 -96 41 -96 56 0 14 126 11
175 -4z m-2604 -128 c16 -62 29 -123 29 -135 0 -28 -81 -93 -178 -141 -61 -30
-89 -37 -146 -40 l-71 -4 -56 79 -56 79 83 -4 c73 -4 88 -1 140 22 75 34 142
105 185 195 18 39 35 68 37 66 2 -2 17 -54 33 -117z m2452 70 c20 -12 37 -24
37 -27 0 -11 -348 -186 -355 -179 -17 17 84 161 141 200 76 51 97 58 119 43
11 -8 37 -25 58 -37z m-810 -109 c8 -103 44 -186 104 -238 32 -29 40 -41 31
-48 -7 -5 -81 -44 -165 -86 l-151 -77 -89 69 c-103 80 -130 108 -117 120 73
71 370 341 375 341 3 0 9 -36 12 -81z m-889 -26 c9 -56 59 -155 98 -195 68
-68 169 -95 271 -75 26 6 37 5 33 -2 -4 -6 -69 -64 -146 -130 -137 -119 -140
-120 -171 -109 -70 24 -133 115 -164 235 -24 93 -20 144 22 238 20 46 39 82
43 80 4 -3 10 -22 14 -42z m-3350 -111 c89 -32 110 -43 123 -68 49 -92 180
-635 209 -864 24 -196 15 -467 -19 -602 -30 -114 -78 -217 -144 -304 -45 -59
-53 -65 -113 -83 -121 -36 -210 -59 -210 -56 0 2 14 28 31 56 109 185 186 378
226 565 25 120 27 145 27 369 0 224 -2 249 -27 370 -38 177 -97 361 -163 508
-30 67 -58 128 -61 135 -8 18 3 16 121 -26z m2146 -127 c0 -83 -28 -239 -55
-307 -33 -82 -75 -132 -136 -163 -57 -29 -69 -30 -129 -6 l-45 19 70 33 c96
45 184 133 215 214 18 48 24 86 28 189 l4 128 24 -28 c17 -22 23 -42 24 -79z
m506 69 c8 -42 -4 -68 -55 -123 -41 -44 -107 -64 -224 -65 -61 -1 -71 2 -88
23 -10 13 -19 27 -19 31 0 5 24 11 53 15 73 10 181 57 252 110 33 25 63 45 67
45 4 0 10 -16 14 -36z m103 -21 c49 -24 71 -28 171 -31 91 -2 130 1 188 16 40
11 72 17 70 13 -2 -3 -11 -27 -22 -53 -17 -44 -22 -48 -80 -67 -96 -32 -149
-36 -202 -16 -54 20 -194 129 -194 150 0 20 4 19 69 -12z m-2501 -10 c43 -14
82 -31 88 -37 16 -16 145 -321 187 -442 49 -140 103 -359 122 -495 19 -136 21
-355 5 -465 -15 -96 -57 -234 -73 -239 -215 -66 -389 -116 -393 -113 -2 3 8
20 22 39 42 55 111 207 133 294 80 320 38 738 -135 1330 -20 66 -38 128 -40
138 -7 22 -6 22 84 -10z m4336 -30 c-77 -134 -143 -200 -233 -234 -66 -25
-153 -23 -216 5 l-40 18 45 23 c25 13 137 71 250 129 113 58 209 106 213 106
5 0 -3 -21 -19 -47z m-1329 -130 c24 -64 78 -135 126 -164 21 -13 39 -27 39
-31 0 -15 -55 -48 -82 -48 -70 0 -124 60 -152 168 -22 81 -20 124 6 185 l22
51 12 -57 c6 -31 19 -78 29 -104z m-1040 63 l37 -55 -4 -93 c-9 -178 -81 -271
-236 -308 -29 -7 -56 -9 -60 -5 -4 4 -2 10 5 12 30 11 95 67 118 102 51 76 95
240 95 354 0 26 2 47 4 47 2 0 20 -24 41 -54z m-1655 -12 c85 -30 162 -63 171
-74 21 -25 132 -304 163 -414 47 -159 59 -263 53 -440 -5 -175 -29 -293 -97
-478 l-32 -87 -78 -25 c-70 -23 -110 -31 -110 -23 0 1 9 25 19 53 35 91 54
262 48 424 -12 306 -92 619 -253 987 -30 68 -54 126 -54 128 0 9 16 4 170 -51z
m2120 -18 c14 -75 10 -85 -55 -145 -56 -51 -100 -71 -157 -71 -42 0 -44 2 -88
68 -25 37 -46 70 -48 75 -2 4 16 7 40 7 64 0 153 17 194 36 20 10 48 35 63 55
14 21 29 38 32 39 4 0 12 -29 19 -64z m155 -25 c49 -26 138 -28 214 -5 29 8
55 14 56 12 2 -2 -7 -28 -21 -58 -34 -76 -77 -100 -179 -100 -78 0 -130 15
-154 43 -15 18 -40 124 -41 170 l0 28 43 -34 c23 -19 60 -44 82 -56z m1117
-38 c32 -25 56 -49 54 -52 -3 -3 -24 -17 -48 -30 -40 -21 -47 -22 -73 -10 -42
21 -67 61 -73 118 -7 79 1 89 45 51 21 -18 64 -53 95 -77z m-172 38 c0 -61 10
-89 49 -133 l30 -35 -130 -67 c-155 -79 -182 -82 -228 -31 -38 44 -39 56 -3
82 15 11 81 68 147 127 65 58 123 106 127 106 4 0 8 -22 8 -49z m-621 -116
c22 -76 72 -139 124 -158 46 -15 26 -32 -39 -32 -45 0 -66 5 -90 22 -33 24
-65 89 -66 133 0 27 42 132 47 115 2 -5 12 -41 24 -80z m-2198 21 c84 -30 156
-60 161 -68 69 -110 123 -219 154 -311 l39 -112 -1 -165 c0 -146 -3 -176 -27
-265 -27 -103 -112 -289 -144 -316 -18 -17 -263 -102 -271 -95 -2 2 14 60 36
128 62 190 76 277 77 468 0 97 -6 190 -13 225 -31 141 -101 353 -176 528 -14
31 -14 37 -2 37 7 0 83 -24 167 -54z m1384 -38 c46 -70 47 -73 43 -132 -7 -82
-41 -157 -94 -205 l-43 -40 -43 13 c-103 32 -154 49 -161 56 -5 4 16 17 46 29
100 41 168 142 190 282 6 38 11 69 12 69 1 0 24 -32 50 -72z m373 -38 c9 -47
7 -62 -10 -102 -27 -64 -49 -81 -111 -86 l-52 -4 -42 63 c-44 66 -43 79 6 79
36 0 105 38 147 81 21 22 41 36 45 31 4 -4 12 -32 17 -62z m86 -5 c64 -19 159
-19 196 0 17 9 30 13 30 10 0 -20 -54 -107 -75 -121 -80 -52 -179 -6 -200 94
-4 17 -5 32 -3 32 2 0 25 -7 52 -15z m-1157 -162 c46 -16 46 -17 73 -138 7
-27 11 -122 11 -210 0 -251 -26 -346 -124 -458 -41 -47 -49 -51 -222 -113 -98
-35 -181 -62 -183 -60 -2 2 10 26 27 53 59 96 116 304 128 463 12 180 -50 406
-162 587 l-26 42 218 -75 c120 -42 237 -83 260 -91z m1439 86 c30 -54 81 -89
129 -89 35 0 31 -15 -12 -45 -81 -54 -193 -11 -193 74 0 17 39 111 46 111 2 0
15 -23 30 -51z m396 -106 c-44 -27 -59 -28 -84 -6 -28 25 -24 77 9 103 l26 21
43 -48 42 -48 -36 -22z m-1004 34 c39 -59 42 -67 36 -111 -8 -53 -39 -98 -85
-121 -25 -13 -33 -13 -81 6 l-54 20 35 37 c42 45 82 130 89 188 2 24 8 44 11
44 4 0 26 -28 49 -63z m244 -76 c-10 -14 -37 -33 -60 -41 -38 -13 -43 -13 -61
5 -29 25 -26 32 12 40 51 11 84 32 104 66 l18 31 3 -38 c2 -25 -3 -46 -16 -63z
m175 62 c63 7 66 -5 12 -41 -57 -39 -129 -17 -129 39 l0 30 32 -17 c23 -12 46
-15 85 -11z m465 -80 c-19 -16 -37 -16 -63 -3 -28 15 -24 55 8 80 l26 21 23
-43 c20 -39 20 -44 6 -55z m-358 27 c12 -22 30 -34 62 -42 24 -7 44 -16 44
-20 0 -4 -14 -15 -31 -23 -63 -33 -129 17 -114 87 8 36 16 35 39 -2z m-1211 4
c40 -13 48 -21 61 -57 48 -129 59 -304 26 -431 -20 -79 -84 -209 -117 -238
-14 -12 -104 -48 -120 -48 -1 0 12 20 31 45 47 61 72 133 86 249 15 119 7 366
-14 444 -8 28 -11 52 -7 52 4 0 28 -7 54 -16z m1467 -44 l21 -29 -41 -21 c-22
-11 -45 -18 -50 -15 -20 12 -10 53 18 74 15 11 28 21 29 21 1 0 11 -13 23 -30z
m-373 -37 c-22 -45 -41 -52 -78 -33 -13 7 -19 21 -19 43 l0 32 59 0 58 0 -20
-42z m-938 22 c30 -15 79 -84 106 -148 38 -91 28 -311 -18 -391 -19 -34 -33
-43 -111 -73 -48 -19 -90 -32 -92 -30 -2 2 12 35 31 73 19 38 42 98 52 134 23
90 21 269 -5 373 -21 85 -18 91 37 62z m613 -32 c-3 -41 -37 -112 -57 -120 -8
-3 -23 -2 -32 1 -14 6 -11 13 20 44 19 20 41 56 49 79 15 49 23 47 20 -4z
m198 17 c0 -24 -8 -35 -41 -57 l-41 -27 -19 23 c-24 30 -24 41 0 41 11 0 33
11 48 25 38 33 53 32 53 -5z m253 -60 c17 -1 -45 -50 -63 -50 -9 0 -26 7 -38
16 l-22 15 21 40 20 40 35 -30 c19 -17 40 -31 47 -31z m-863 7 c85 -32 85 -32
103 -82 12 -36 16 -74 15 -135 -3 -75 -7 -93 -39 -155 -33 -64 -39 -71 -90
-91 -29 -12 -55 -21 -57 -19 -2 2 4 29 14 60 13 45 15 86 12 189 -5 133 -8
145 -66 259 -7 13 21 6 108 -26z m1003 13 c7 -27 -27 -47 -49 -29 -14 11 -13
15 8 31 30 23 35 22 41 -2z m-536 -22 c14 -32 -20 -108 -47 -108 -25 0 -25 11
0 60 11 22 20 46 20 55 0 22 15 18 27 -7z m153 -32 c0 -17 -47 -49 -60 -41
-17 11 -11 32 13 43 31 15 47 14 47 -2z m68 2 c-7 -19 -38 -22 -38 -4 0 10 9
16 21 16 12 0 19 -5 17 -12z m237 -8 c-3 -4 -19 -13 -37 -19 l-32 -11 23 24
c20 22 59 27 46 6z m-710 -34 c86 -38 99 -107 43 -218 -30 -56 -39 -66 -91
-91 -32 -16 -61 -27 -63 -24 -2 2 7 28 21 58 32 71 41 175 22 247 -17 62 -14
63 68 28z m309 -11 c21 -32 7 -66 -24 -58 -11 3 -23 9 -26 14 -4 8 22 69 30
69 2 0 11 -11 20 -25z m231 12 c13 -10 15 -16 6 -21 -17 -11 -41 0 -41 19 0
19 11 19 35 2z m-135 -39 c0 -7 -4 -19 -9 -26 -7 -11 -10 -10 -15 3 -3 9 -4
21 0 26 8 13 24 11 24 -3z m-250 -112 c0 -68 -10 -85 -63 -105 -33 -13 -33
-10 -5 48 16 33 21 62 20 110 l0 66 24 -28 c20 -23 24 -39 24 -91z m340 100
c0 -3 -4 -8 -10 -11 -5 -3 -10 -1 -10 4 0 6 5 11 10 11 6 0 10 -2 10 -4z
m-264 -87 l18 -41 -23 -19 c-13 -11 -25 -18 -26 -17 -1 2 -5 34 -8 71 -5 76 6
78 39 6z m60 31 c8 0 14 -10 14 -25 0 -35 -26 -32 -46 6 -15 30 -15 31 1 25 9
-3 23 -6 31 -6z m84 -89 c0 -27 -15 -34 -31 -15 -10 13 -10 17 2 25 22 13 29
11 29 -10z m-55 -37 c24 -37 13 -40 -14 -4 -12 17 -17 30 -12 30 5 0 16 -12
26 -26z m-36 -29 c30 -35 35 -50 31 -90 -5 -48 -17 -49 -40 -4 -12 24 -34 57
-49 72 -25 28 -26 29 -7 43 27 19 30 19 65 -21z m-102 -23 c36 -27 104 -151
94 -170 -7 -13 -11 -10 -24 14 -22 43 -98 109 -141 124 -41 13 -40 19 7 37 42
15 39 15 64 -5z m227 -37 c6 -16 -3 -19 -28 -9 -9 3 -13 10 -10 15 8 14 31 11
38 -6z m-284 -40 c54 -27 120 -111 120 -152 0 -26 -20 -73 -31 -73 -4 0 -23
18 -41 41 -39 49 -133 121 -203 157 l-50 25 30 13 c49 21 120 17 175 -11z
m288 -27 c3 -15 -4 -18 -37 -18 -43 0 -50 7 -29 28 18 18 62 11 66 -10z m-449
-38 c128 -67 241 -182 226 -230 -9 -27 -19 -25 -34 6 -14 31 -90 131 -118 156
-11 10 -55 38 -99 63 -98 56 -80 59 25 5z m-49 -32 c88 -46 117 -72 176 -155
74 -102 74 -103 10 -237 -31 -64 -57 -116 -58 -116 -2 0 -3 48 -4 108 0 125
-21 191 -85 271 -46 59 -101 93 -187 117 -34 10 -59 20 -56 23 14 14 91 38
109 34 11 -3 54 -23 95 -45z m494 0 c15 -25 5 -29 -55 -20 l-54 8 30 17 c36
20 64 18 79 -5z m-659 -44 c111 -27 175 -80 224 -184 34 -74 42 -225 16 -315
-10 -33 -18 -72 -18 -87 0 -15 -4 -25 -8 -22 -5 3 -9 18 -9 34 0 51 -21 133
-51 196 -60 127 -246 279 -397 324 -23 7 -40 15 -37 18 2 3 39 17 82 32 81 29
91 29 198 4z m649 -30 c31 -30 20 -44 -28 -38 -25 4 -58 2 -75 -4 -40 -14 -43
7 -5 37 32 25 86 27 108 5z m-867 -70 c121 -44 279 -177 335 -281 35 -64 58
-160 58 -246 0 -56 -5 -78 -31 -129 -36 -70 -43 -66 -52 28 -14 139 -97 297
-221 419 -92 91 -180 146 -279 176 -37 12 -65 24 -62 28 4 3 27 13 53 22 57
20 112 15 199 -17z m871 -17 c12 -10 17 -69 6 -79 -3 -4 -22 0 -41 9 -22 9
-58 13 -90 11 -57 -3 -67 7 -34 36 44 40 123 51 159 23z m-1116 -36 c189 -49
357 -186 452 -371 53 -101 61 -133 76 -268 l11 -103 -32 -56 -33 -57 -12 63
c-17 83 -51 153 -126 263 -115 168 -213 258 -336 308 -75 30 -271 83 -377 101
-61 10 -67 13 -45 22 36 13 334 116 341 116 3 1 40 -8 81 -18z m1088 -80 c21
-15 25 -27 28 -79 l3 -61 -58 30 c-51 27 -65 30 -114 25 -31 -3 -63 -8 -72
-12 -14 -5 -13 3 8 47 18 42 32 57 57 66 42 16 116 8 148 -16z m-1495 -71 c88
-14 247 -53 347 -86 137 -45 238 -128 353 -289 92 -129 132 -218 144 -326 7
-59 7 -59 -64 -190 -39 -72 -75 -131 -80 -131 -6 1 -35 65 -66 144 -102 263
-175 384 -308 511 -106 100 -208 154 -421 222 -195 62 -230 75 -230 85 0 13
202 78 230 74 14 -2 57 -8 95 -14z m1449 -64 c56 -23 66 -48 65 -156 0 -81
-14 -206 -18 -159 -2 32 -72 158 -101 183 -39 33 -103 42 -158 23 -42 -15 -43
-15 -36 7 10 33 31 71 46 83 41 32 146 42 202 19z m-1624 -91 c282 -94 368
-136 465 -227 96 -90 156 -170 216 -291 39 -77 128 -290 161 -387 7 -18 -83
-193 -93 -182 -4 4 -12 38 -18 76 -21 120 -81 243 -203 413 -187 261 -490 487
-796 593 -51 18 -90 35 -87 39 6 6 102 38 120 40 6 1 111 -33 235 -74z m-407
-26 c23 -12 80 -46 127 -76 376 -245 623 -542 741 -895 44 -130 57 -215 60
-368 l2 -135 -69 -119 -69 -118 -7 108 c-15 244 -80 438 -216 649 -204 317
-602 623 -1017 782 -49 19 -94 39 -99 43 -5 5 22 18 60 29 38 11 143 43 234
70 91 28 175 50 188 51 12 0 42 -10 65 -21z m139 -15 c184 -66 418 -210 565
-348 192 -180 358 -438 397 -613 29 -133 25 -154 -56 -298 l-73 -127 -3 44
c-8 140 -24 254 -47 333 -54 186 -170 407 -292 557 -119 145 -331 327 -509
435 -38 24 -66 43 -62 43 4 0 40 -12 80 -26z m1829 -43 c49 -53 77 -129 85
-240 l7 -91 -59 33 c-56 30 -64 32 -159 31 -82 -1 -114 -6 -174 -27 -41 -15
-76 -25 -79 -23 -2 3 31 73 75 158 73 144 81 154 123 176 28 14 62 22 94 22
44 0 53 -4 87 -39z m-66 -302 c77 -14 108 -31 134 -72 33 -53 28 -90 -16 -125
l-37 -30 -63 24 c-79 30 -233 48 -335 40 -43 -4 -78 -3 -78 1 0 5 10 26 23 47
19 35 33 44 106 73 46 19 109 38 140 42 31 5 59 9 62 10 3 0 32 -4 64 -10z
m-12 -228 c31 -12 57 -25 57 -28 0 -3 -15 -26 -34 -52 -57 -79 -80 -131 -80
-189 0 -43 -3 -51 -16 -46 -128 55 -293 81 -408 65 -42 -5 -77 -9 -78 -8 -1 1
30 62 70 135 60 112 76 134 101 142 17 5 98 8 180 6 126 -2 159 -7 208 -25z
m157 -26 c0 -26 -14 -33 -25 -15 -9 14 1 40 15 40 5 0 10 -11 10 -25z m-25
-68 c16 -31 16 -40 1 -167 -25 -201 -17 -188 -77 -138 -59 51 -79 84 -79 133
0 62 94 220 124 209 8 -3 21 -20 31 -37z m-378 -203 c125 -26 197 -64 276
-147 l68 -72 -21 -155 c-12 -85 -25 -166 -29 -180 l-8 -25 -18 35 c-69 134
-188 223 -361 271 -88 24 -255 29 -338 10 -27 -7 -51 -10 -53 -7 -5 5 123 236
142 255 31 32 220 40 342 15z m409 -261 c27 -27 12 -124 -37 -248 -23 -58 -44
-104 -46 -101 -7 6 50 366 58 366 4 0 15 -8 25 -17z m-549 -38 c206 -39 389
-196 410 -352 4 -29 -64 -472 -81 -528 -1 -5 -13 22 -25 60 -49 154 -139 295
-237 369 -58 45 -236 136 -334 171 -45 16 -106 29 -152 32 -43 3 -78 9 -78 13
0 5 27 55 60 113 l61 105 72 12 c40 7 77 14 82 15 28 9 152 3 222 -10z m-302
-305 c83 -26 240 -102 320 -156 106 -69 199 -203 248 -357 35 -105 42 -173 27
-253 l-13 -66 -42 81 c-96 184 -220 309 -390 391 -142 69 -193 81 -383 87 -89
3 -161 9 -160 12 4 9 136 238 156 270 14 23 18 23 91 18 42 -3 108 -15 146
-27z m-25 -330 c102 -25 224 -84 302 -146 116 -92 247 -285 274 -404 11 -46
11 -65 -2 -122 l-16 -68 -46 63 c-149 199 -358 332 -660 422 -123 36 -297 75
-338 75 -13 0 -24 2 -24 5 0 11 104 181 119 194 24 20 280 8 391 -19z m737
-32 c-3 -8 -6 -5 -6 6 -1 11 2 17 5 13 3 -3 4 -12 1 -19z m-1192 -188 c190
-28 484 -123 628 -204 127 -70 261 -195 337 -311 l40 -62 -45 -219 c-25 -120
-71 -333 -102 -471 l-57 -252 -41 127 c-67 204 -152 356 -292 524 -85 103
-168 176 -284 254 -158 106 -276 153 -441 177 l-87 12 131 218 c72 119 134
217 137 217 3 0 38 -5 76 -10z m-165 -491 c111 -25 280 -109 392 -193 262
-199 468 -526 535 -850 l17 -82 -42 -180 c-23 -98 -47 -197 -53 -219 l-11 -39
-58 119 c-133 274 -349 459 -698 599 -201 81 -458 136 -634 136 -48 0 -89 4
-93 9 -4 8 245 417 422 694 l24 38 57 -6 c31 -4 95 -15 142 -26z m-335 -765
c280 -48 519 -140 715 -275 179 -123 280 -237 365 -413 88 -183 87 -146 16
-426 l-62 -245 -77 -78 c-135 -138 -291 -255 -607 -459 -176 -113 -665 -398
-682 -398 -9 0 -52 181 -149 620 -24 107 -55 274 -70 370 -24 159 -27 202 -28
475 0 188 5 343 13 415 l13 114 100 157 c69 110 106 159 121 163 38 8 238 -3
332 -20z"/>
</g>
</svg>
